<?xml version="1.0" standalone="no"?>
<!DOCTYPE svg PUBLIC "-//W3C//DTD SVG 20010904//EN"
 "http://www.w3.org/TR/2001/REC-SVG-20010904/DTD/svg10.dtd">
<svg version="1.0" xmlns="http://www.w3.org/2000/svg"
 width="1024.000000pt" height="1024.000000pt" viewBox="0 0 1024.000000 1024.000000"
 preserveAspectRatio="xMidYMid meet">
<metadata>
Created by potrace 1.14, written by Peter Selinger 2001-2017
</metadata>
<g transform="translate(0.000000,1024.000000) scale(0.100000,-0.100000)"
fill="#000000" stroke="none">
<path d="M4869 9650 c-180 -16 -292 -59 -383 -147 -100 -96 -146 -207 -149
-358 -2 -121 19 -181 87 -251 l51 -53 -12 -113 c-22 -211 -15 -264 43 -328
l34 -38 -10 -123 c-6 -68 -12 -149 -15 -179 -2 -30 -9 -113 -15 -185 -6 -71
-13 -148 -15 -170 -2 -22 -9 -105 -15 -185 -6 -80 -12 -161 -15 -180 -2 -19
-9 -93 -15 -165 -17 -183 -20 -192 -87 -240 -82 -58 -273 -244 -336 -328 -65
-85 -145 -241 -181 -350 -53 -162 -83 -411 -72 -599 l7 -117 -50 -22 c-128
-55 -214 -214 -215 -401 -1 -43 -2 -78 -4 -78 -3 0 -57 115 -87 188 -24 56
-70 96 -145 123 -63 23 -80 39 -120 119 l-23 44 36 -31 c50 -44 118 -82 194
-110 81 -29 97 -29 111 2 18 38 16 42 -28 48 -59 8 -182 69 -232 116 -64 58
-169 219 -217 331 -13 30 -34 78 -46 105 -41 87 -50 135 -38 208 38 227 225
387 453 387 66 0 146 -17 190 -40 26 -13 133 -121 178 -178 l26 -33 12 23 c7
13 13 30 14 38 0 8 -42 81 -93 161 -50 81 -99 160 -108 176 -9 17 -35 43 -58
59 -37 25 -46 39 -70 109 -28 82 -90 196 -196 363 -211 330 -349 532 -368 540
-4 2 -14 19 -22 38 -8 19 -20 41 -28 48 -8 8 -29 38 -47 66 l-34 53 30 24
c391 323 932 594 1476 739 60 16 108 34 108 39 0 6 -20 30 -44 54 -52 51 -48
51 -231 -8 -258 -84 -402 -143 -660 -269 -236 -116 -423 -230 -628 -384 -64
-48 -119 -88 -122 -88 -3 0 -5 12 -5 27 0 45 -39 113 -76 130 -31 15 -35 15
-91 -11 -110 -51 -124 -60 -154 -93 -33 -38 -40 -103 -15 -139 27 -38 64 -114
71 -142 5 -25 -4 -38 -83 -118 -176 -178 -437 -532 -590 -799 -66 -115 -147
-295 -207 -460 -32 -86 -59 -141 -78 -162 -26 -28 -31 -42 -33 -95 -2 -35 -14
-100 -28 -144 -13 -45 -34 -133 -45 -195 -12 -63 -26 -132 -31 -154 -9 -43
-50 -281 -50 -295 0 -8 97 31 152 61 13 7 23 4 38 -11 21 -21 26 -40 11 -40
-5 0 -12 6 -15 13 -3 9 -9 7 -19 -6 -10 -12 -17 -15 -22 -7 -5 8 -11 8 -21 -1
-7 -6 -21 -9 -29 -5 -8 3 -15 1 -15 -4 0 -6 -8 -10 -19 -10 -10 0 -24 -7 -31
-15 -7 -8 -18 -15 -25 -15 -30 0 -24 -572 9 -881 18 -162 76 -461 112 -574 63
-197 174 -486 256 -665 49 -107 90 -199 91 -205 1 -5 -21 -31 -49 -58 l-51
-47 -38 75 c-27 53 -41 72 -48 63 -6 -9 -7 -8 -3 5 3 10 -2 35 -11 55 l-18 37
-3 -68 -3 -67 -34 0 c-29 0 -35 -4 -35 -21 0 -11 5 -17 10 -14 5 3 10 -2 11
-12 0 -14 2 -15 6 -3 9 21 35 39 49 33 7 -2 18 5 24 17 13 25 28 19 26 -12 -1
-20 -7 -23 -39 -23 -20 0 -37 -4 -37 -8 0 -4 -6 -14 -12 -21 -18 -18 -51 26
-51 68 0 17 -2 25 -5 18 -2 -6 -8 -9 -14 -6 -14 9 -1 -33 23 -72 32 -53 21
-52 -13 1 -42 67 -157 307 -203 425 -94 239 -200 612 -239 845 -67 389 -81
923 -35 1280 126 976 546 1826 1254 2539 282 284 689 572 1084 769 279 139
679 289 924 346 26 5 32 15 57 94 15 48 36 99 45 113 9 14 14 28 12 31 -15 14
-445 -113 -672 -199 -440 -166 -793 -359 -1160 -636 -201 -152 -299 -236 -480
-417 -290 -289 -526 -598 -748 -980 -285 -488 -486 -1125 -543 -1710 -3 -38
-9 -79 -11 -90 -9 -42 -11 -566 -2 -685 46 -629 176 -1132 428 -1655 222 -460
652 -1018 1071 -1386 598 -527 1403 -897 2225 -1023 252 -39 402 -50 655 -50
688 0 1328 155 1960 475 276 140 512 293 774 503 134 107 455 423 570 561 620
741 949 1531 1041 2495 19 198 19 609 0 800 -78 796 -339 1497 -814 2183 -158
229 -399 509 -586 680 -430 394 -933 709 -1455 912 -231 90 -678 225 -745 225
-12 0 -10 -10 11 -52 15 -29 35 -82 44 -117 l16 -65 111 -27 c294 -72 698
-235 989 -399 395 -223 648 -414 954 -720 320 -319 571 -664 810 -1114 85
-159 258 -597 248 -627 -2 -5 -14 19 -28 53 -52 134 -61 153 -69 139 -5 -7
-36 -16 -70 -20 -54 -6 -61 -5 -56 8 5 13 4 13 -6 4 -9 -9 -8 -18 5 -37 9 -15
14 -26 12 -26 -4 0 52 -165 71 -210 3 -8 8 -26 10 -40 2 -14 20 -83 38 -155
140 -536 168 -1122 79 -1650 -73 -432 -213 -859 -418 -1274 -64 -130 -66 -135
-49 -155 18 -20 17 -20 -2 -6 -17 12 -104 81 -128 100 -4 4 22 67 59 141 235
474 379 993 429 1541 6 58 11 71 41 102 28 28 34 43 34 76 0 34 -6 48 -31 71
l-30 28 -9 175 c-29 555 -152 1044 -379 1511 -319 655 -761 1182 -1321 1572
-199 140 -474 288 -753 407 -113 48 -540 196 -567 196 -18 0 -94 -100 -83
-110 4 -4 42 -15 83 -24 114 -27 340 -102 485 -163 170 -71 487 -227 598 -295
187 -114 520 -378 687 -547 84 -84 443 -501 437 -507 -2 -2 -31 8 -66 22 -55
22 -67 24 -92 13 -38 -15 -69 -55 -69 -86 0 -14 -11 -38 -25 -55 -14 -16 -25
-36 -25 -44 0 -8 -13 -33 -30 -56 -16 -22 -30 -47 -30 -54 0 -7 -31 -57 -69
-111 -98 -141 -123 -187 -116 -215 4 -17 -4 -38 -32 -78 -36 -51 -93 -144
-223 -363 -45 -76 -58 -91 -102 -113 -27 -14 -51 -24 -53 -22 -2 2 8 35 21 73
22 63 24 80 19 175 l-6 105 52 105 c68 140 189 412 189 427 0 23 23 63 37 63
21 0 53 61 53 103 0 28 7 44 25 61 29 27 31 43 8 76 -11 16 -13 25 -6 27 7 3
2 18 -13 40 -13 20 -24 42 -24 49 0 19 -95 92 -155 120 -57 27 -113 31 -153
10 -28 -15 -72 -67 -72 -86 0 -6 -12 -23 -26 -37 -36 -36 -64 -84 -64 -110 0
-12 -31 -69 -68 -125 -117 -176 -140 -215 -203 -341 -82 -164 -94 -179 -171
-207 -78 -28 -129 -78 -180 -177 -41 -77 -44 -89 -26 -128 11 -25 28 -34 28
-15 0 21 103 196 128 218 36 31 101 62 133 62 22 0 32 13 79 103 60 116 58
112 66 105 7 -7 -59 -139 -97 -195 -16 -23 -39 -44 -52 -46 -16 -3 -14 -5 9
-6 31 -1 58 19 59 43 0 9 15 38 80 161 6 11 21 21 34 23 27 4 101 -44 101 -66
0 -8 -16 -43 -35 -77 -19 -34 -32 -65 -29 -68 14 -14 -8 -26 -26 -15 -14 9
-22 9 -34 -2 -15 -12 -15 -14 0 -31 10 -11 23 -19 31 -19 7 0 13 -5 13 -11 0
-5 -4 -7 -10 -4 -19 12 -10 -22 11 -41 17 -15 20 -27 15 -60 -8 -61 -24 -90
-61 -110 l-33 -17 -46 37 c-42 35 -49 38 -83 30 -21 -4 -42 -6 -47 -5 -14 3
-44 -29 -50 -54 -6 -22 -39 -42 -61 -36 -5 1 -7 -1 -2 -5 4 -4 -1 -16 -10 -26
-16 -18 -16 -19 10 -9 15 6 48 22 73 36 53 29 92 32 101 8 3 -10 16 -45 30
-78 30 -75 30 -77 18 -81 -5 -2 -21 24 -35 57 -14 34 -31 63 -38 66 -28 12
-212 -60 -212 -82 0 -26 16 -23 87 15 41 22 81 40 89 40 20 0 50 -53 80 -143
l26 -79 -33 -79 c-21 -49 -39 -77 -46 -74 -7 2 -18 -1 -26 -8 -7 -7 -23 -18
-35 -25 -18 -10 -22 -10 -22 3 0 8 -5 15 -11 15 -6 0 -8 9 -4 20 4 13 2 20 -7
20 -26 -1 -57 -36 -63 -72 -6 -34 -5 -38 13 -38 11 0 22 8 25 20 6 22 -8 28
-16 8 -4 -8 -6 -7 -6 3 -1 9 8 27 18 40 l20 24 -6 -24 c-4 -17 -3 -22 5 -17 7
4 12 1 12 -8 0 -8 6 -17 13 -19 9 -4 9 -7 -1 -14 -7 -5 -14 -18 -17 -29 -2
-10 -9 -33 -16 -51 -12 -30 -11 -32 22 -59 19 -15 53 -47 75 -71 31 -33 44
-40 51 -31 6 7 52 90 103 183 51 94 131 231 177 305 46 74 98 164 116 200 30
61 32 72 33 181 l1 116 43 81 c24 45 47 79 51 76 4 -2 -10 -41 -31 -86 l-40
-81 6 -101 c8 -125 1 -144 -123 -356 -89 -153 -201 -352 -282 -503 -34 -61
-41 -84 -36 -107 4 -16 10 -32 15 -35 8 -5 60 68 60 86 0 10 148 279 154 279
2 0 27 -8 57 -19 96 -33 208 -94 353 -195 l56 -39 -35 -61 c-26 -46 -39 -60
-54 -58 -11 2 -33 -4 -50 -12 -16 -9 -40 -16 -52 -16 -13 0 -33 -10 -46 -22
-13 -12 -23 -16 -23 -10 0 7 -5 12 -11 12 -5 0 -8 -4 -4 -9 3 -5 1 -12 -5 -16
-5 -3 -10 -1 -10 6 0 8 -5 5 -13 -5 -7 -10 -29 -19 -49 -21 -19 -2 -57 -11
-84 -20 -27 -10 -58 -19 -69 -20 -38 -5 -145 -58 -145 -72 0 -8 4 -11 10 -8
16 10 182 67 220 76 143 32 209 49 235 59 17 7 43 16 58 21 l28 8 -24 -42
c-27 -47 -172 -286 -219 -359 l-30 -48 -36 20 c-21 11 -66 39 -101 61 -49 31
-66 37 -72 27 -7 -10 -14 -9 -38 5 l-29 17 -1 -60 -1 -60 28 6 c38 10 40 13
13 35 -13 10 -19 19 -15 19 5 0 24 -13 42 -28 l32 -27 -38 -54 c-48 -70 -63
-75 -58 -22 2 22 7 44 11 50 3 6 2 11 -3 11 -5 0 -18 -46 -31 -102 -12 -57
-35 -131 -51 -165 l-29 -63 44 -26 c51 -29 199 -91 300 -124 39 -13 133 -52
210 -87 77 -35 145 -67 151 -69 12 -6 36 31 104 161 24 44 64 116 90 160 275
466 270 457 320 477 25 9 74 17 111 17 l66 1 33 63 c51 95 155 253 223 337 34
41 62 77 63 78 1 2 30 -11 64 -30 58 -31 61 -34 54 -63 -3 -16 -7 -38 -7 -47
-1 -9 -4 -15 -8 -12 -4 2 -10 -3 -13 -12 -9 -24 -7 -31 4 -14 18 27 11 -7 -14
-72 -13 -35 -51 -124 -85 -198 -52 -115 -64 -135 -83 -135 -19 -1 -22 -5 -18
-25 3 -14 5 -59 5 -100 0 -67 -3 -79 -28 -112 -15 -20 -31 -52 -34 -72 -9 -58
-26 -55 -22 3 2 28 1 51 -3 51 -4 0 -16 17 -27 37 -23 45 -93 114 -141 139
-47 25 -171 25 -218 0 -19 -10 -31 -20 -28 -23 3 -3 -5 -20 -18 -37 -26 -34
-69 -116 -61 -116 2 0 12 15 21 33 31 61 76 107 126 131 57 28 78 26 160 -11
44 -20 65 -37 93 -77 71 -104 70 -209 -4 -370 -109 -236 -221 -337 -371 -336
-75 1 -98 10 -168 65 -39 31 -53 50 -61 82 -17 64 -14 127 8 154 27 36 53 89
48 102 -2 6 -25 -31 -51 -83 -44 -87 -47 -98 -40 -145 8 -62 27 -100 60 -121
66 -44 10 -25 -535 177 -238 89 -267 102 -363 165 l-66 44 25 63 c77 190 111
540 71 747 -24 129 -103 215 -230 254 -16 5 -18 24 -18 203 0 283 -26 430
-109 623 -99 229 -219 374 -495 595 -33 27 -38 37 -46 95 -19 134 -25 197 -35
340 -3 47 -10 123 -15 170 -20 173 -40 379 -49 505 -6 72 -13 167 -17 212 -6
83 -6 83 26 120 65 73 74 137 51 343 l-11 104 36 36 c21 19 48 59 62 88 47
103 38 291 -20 410 -56 115 -210 225 -363 257 -85 19 -391 27 -526 15z m493
-201 c77 -16 166 -66 200 -113 62 -87 89 -276 38 -276 -4 0 -10 26 -13 58 -6
71 -33 150 -59 179 -30 33 -74 48 -93 33 -26 -21 1 -42 49 -38 31 2 41 -1 41
-12 0 -10 -12 -16 -37 -18 -21 -2 -38 -7 -38 -13 0 -5 3 -9 8 -9 8 0 5 -165
-4 -190 -4 -13 -6 -13 -14 0 -6 8 -10 26 -10 40 0 13 -7 44 -16 67 -14 35 -21
42 -35 38 -12 -4 -19 -1 -20 7 -1 30 -17 -32 -24 -97 -4 -38 -10 -64 -12 -57
-7 18 -20 15 -26 -8 -6 -22 -31 -27 -44 -8 -4 7 -21 46 -38 87 -16 40 -34 73
-40 73 -11 -1 -33 -81 -34 -128 -1 -17 -8 -37 -17 -45 -15 -13 -88 -18 -99 -7
-3 3 -11 36 -16 73 -6 37 -17 81 -24 98 l-12 30 -16 -49 c-9 -27 -20 -71 -24
-99 -8 -45 -11 -50 -36 -53 -15 -2 -27 -7 -27 -12 0 -5 7 -7 15 -4 8 4 15 1
15 -5 0 -16 -41 -13 -64 4 -15 11 -20 29 -22 69 -2 54 -12 113 -21 129 -11 18
-62 -91 -64 -137 -3 -43 -5 -46 -29 -46 -25 0 -28 4 -34 53 -3 28 -6 76 -6
105 0 66 -14 60 -36 -16 -32 -112 -43 -123 -85 -81 -19 19 -21 28 -15 91 9 85
22 124 62 181 35 49 108 91 184 106 67 13 530 13 592 0z m-668 -631 c3 -149
-4 -229 -20 -235 -35 -13 -37 29 -12 225 12 94 30 100 32 10z m813 -103 c5
-49 6 -103 3 -119 -11 -64 -109 -96 -285 -95 l-110 1 95 14 c105 15 214 45
244 67 18 13 20 26 17 151 -4 212 17 201 36 -19z m-694 119 c26 -6 27 -8 27
-74 0 -106 -19 -139 -62 -107 -12 10 -18 37 -23 106 -7 88 -7 93 11 88 11 -4
31 -9 47 -13z m22 -301 c67 -23 68 -24 24 -19 -55 6 -129 34 -129 48 0 6 8 7
18 3 9 -4 49 -18 87 -32z m585 -130 c0 -5 16 -170 35 -368 20 -198 44 -463 55
-590 42 -497 39 -478 73 -537 17 -29 67 -87 111 -128 292 -271 397 -426 464
-680 51 -190 47 -441 -10 -835 -15 -103 -22 -219 -27 -435 l-6 -295 -31 -66
c-31 -65 -113 -168 -143 -180 -29 -12 -130 -118 -151 -159 -28 -56 -25 -59 14
-14 19 21 37 36 41 32 5 -4 -4 -34 -18 -66 -30 -65 -50 -150 -45 -184 2 -17
16 2 52 75 59 116 79 139 32 35 -19 -40 -52 -127 -74 -193 -23 -66 -54 -151
-69 -189 l-28 -69 -8 44 c-12 70 -49 200 -70 249 -23 57 -60 133 -67 140 -3 3
-39 57 -82 120 -42 63 -101 142 -132 175 l-56 60 21 -49 c11 -28 22 -68 25
-91 l6 -40 -49 -23 c-27 -12 -55 -22 -61 -22 -6 0 -28 -11 -48 -25 -60 -41
-179 -30 -236 22 -10 9 -18 12 -18 6 0 -16 -47 -3 -66 18 -26 29 -29 97 -5
143 11 22 19 41 17 43 -6 7 -117 -120 -167 -191 -135 -191 -252 -478 -234
-573 16 -88 -29 20 -74 177 -17 57 -24 98 -18 101 21 14 -16 187 -59 271 -28
54 -24 61 11 21 17 -20 24 -23 25 -12 0 8 -36 50 -80 93 -117 113 -216 259
-235 346 -4 19 -8 156 -10 305 -1 232 -5 298 -29 465 -61 444 -56 648 21 865
80 221 194 374 431 575 96 81 149 153 161 216 6 28 17 144 25 260 9 115 18
225 20 244 2 19 7 69 10 110 19 264 58 739 62 758 2 12 10 22 17 22 14 0 13
-132 -4 -285 -14 -140 -34 -450 -34 -552 0 -51 -3 -93 -6 -93 -3 0 -6 -6 -6
-12 -3 -144 -15 -445 -19 -483 -12 -98 -26 -118 -252 -365 -146 -159 -207
-242 -245 -337 -14 -35 -24 -63 -23 -63 2 0 30 35 63 78 100 128 258 241 436
310 132 51 223 67 377 65 173 -1 246 -19 416 -102 117 -58 153 -81 217 -141
177 -166 270 -387 271 -650 1 -128 -12 -200 -43 -250 -10 -15 -11 -21 -3 -17
15 10 15 -3 2 -39 -10 -24 -7 -31 23 -63 32 -34 57 -71 57 -86 0 -4 -16 7 -35
24 -33 29 -85 42 -85 22 0 -5 16 -21 35 -35 41 -32 78 -100 94 -174 14 -67 15
-282 1 -282 -5 0 -10 18 -10 40 0 74 -47 152 -112 186 -24 13 -27 12 -22 -1 5
-13 1 -13 -27 -3 -39 14 -158 15 -344 4 -110 -7 -136 -6 -169 8 -52 22 -56 20
-21 -10 l30 -26 -32 16 c-17 9 -34 25 -38 36 -7 23 -25 27 -25 6 0 -14 35 -63
60 -83 8 -7 24 -13 35 -14 17 -1 17 -2 3 -6 -10 -2 -35 5 -56 17 -65 37 -99
134 -72 204 14 39 -3 31 -27 -11 -19 -35 -35 -98 -37 -148 -1 -23 -5 -25 -50
-25 l-33 0 -6 66 c-4 40 -15 79 -28 100 -22 36 -47 48 -29 14 14 -26 15 -79 2
-110 -6 -14 -11 -20 -11 -13 -1 19 -44 12 -69 -11 -20 -18 -36 -21 -110 -21
-48 0 -146 7 -219 14 -101 10 -142 11 -177 2 -24 -6 -51 -8 -59 -5 -8 3 -18 1
-22 -5 -3 -6 -1 -11 5 -11 6 0 8 -5 4 -11 -4 -8 -9 -7 -15 2 -8 12 -12 11 -22
-2 -7 -9 -21 -18 -32 -20 -11 -3 -25 -15 -32 -29 -15 -33 -28 -110 -15 -91 7
9 12 10 16 2 9 -14 -2 -51 -22 -73 -11 -14 -12 -18 -2 -18 9 0 7 -7 -6 -22
-10 -12 -13 -18 -5 -13 11 6 13 4 8 -9 -4 -10 -7 -23 -7 -29 0 -8 -3 -8 -8 -2
-4 6 -17 16 -30 23 -23 13 -23 13 -6 -13 9 -14 25 -30 35 -36 30 -15 23 -32
-10 -26 l-29 6 38 -77 c65 -134 176 -218 301 -229 33 -3 59 -8 59 -11 0 -3 -8
-11 -17 -18 -36 -27 11 -15 66 17 71 41 151 121 191 193 18 31 35 55 37 52 11
-10 -30 -107 -68 -161 -21 -31 -34 -53 -27 -49 7 4 4 -2 -6 -14 -14 -17 -16
-22 -5 -22 24 0 -53 -61 -126 -98 -71 -37 -71 -57 0 -28 58 25 60 19 8 -25
-63 -54 -63 -54 -28 -36 37 19 193 155 221 194 29 39 62 104 91 182 14 36 29
68 34 72 5 3 13 28 17 55 5 27 13 58 20 69 10 17 12 11 13 -40 0 -33 0 -85 -1
-115 -1 -41 1 -52 10 -44 7 7 13 52 14 110 2 65 8 111 19 134 20 44 41 70 56
70 7 0 9 5 6 10 -4 6 5 10 21 10 41 0 69 -36 99 -125 3 -11 8 -64 10 -119 5
-118 15 -141 15 -33 0 45 4 77 10 77 6 0 10 18 10 39 0 22 5 43 10 46 7 4 10
-13 9 -47 -3 -99 1 -148 12 -148 7 0 9 18 5 53 -5 47 -4 44 19 -32 34 -118 75
-196 142 -271 57 -63 165 -150 186 -150 6 0 -7 15 -29 34 l-39 35 30 -5 c26
-4 23 0 -21 26 -72 42 -92 70 -24 32 54 -30 126 -56 87 -32 -9 6 -14 17 -11
23 4 7 4 9 0 6 -8 -8 -34 12 -123 95 -44 41 -74 81 -98 129 -48 95 -46 132 2
47 46 -82 132 -167 203 -201 69 -33 120 -47 63 -17 -24 12 -43 25 -43 28 0 3
19 5 42 3 23 -1 48 2 56 6 10 5 1 8 -24 8 -22 0 -60 10 -84 21 l-45 20 68 1
c105 1 154 18 204 67 50 51 54 46 14 -17 -18 -30 -44 -53 -72 -67 -31 -15 -38
-22 -23 -22 29 0 88 25 104 45 7 9 19 14 25 11 7 -2 24 8 37 22 25 28 93 152
84 152 -4 0 7 19 24 42 36 49 42 87 7 47 -25 -30 -53 -43 -62 -29 -3 5 8 16
24 25 17 8 35 24 41 35 12 22 17 238 10 460 -3 133 1 165 46 355 3 11 10 43
16 70 7 28 12 111 12 185 -1 113 -5 151 -27 235 -32 123 -44 153 -103 252 -62
105 -159 228 -280 354 -121 125 -179 210 -193 282 -6 29 -15 126 -21 217 -6
91 -20 282 -30 425 -17 219 -50 756 -50 801 0 14 20 20 20 7z m-562 -35 c7 -7
12 -29 12 -50 0 -30 -4 -38 -17 -38 -35 0 -46 15 -38 51 11 53 20 60 43 37z
m-48 -14 c0 -8 -5 -12 -10 -9 -6 4 -8 11 -5 16 9 14 15 11 15 -7z m48 -125
c18 -6 29 -16 25 -22 -8 -13 -10 -55 -17 -397 -3 -151 -9 -375 -12 -497 -6
-186 -4 -223 7 -223 10 0 10 -3 3 -8 -13 -8 -15 -164 -2 -156 11 7 -13 -47
-30 -68 -22 -26 -57 -22 -81 8 -25 31 -27 103 -11 349 11 164 24 388 40 675
20 380 16 361 78 339z m-2252 -40 l16 -32 -25 7 c-18 4 -27 1 -31 -10 -3 -8
-10 -13 -15 -10 -5 3 -12 -1 -15 -10 -3 -8 -10 -13 -16 -9 -5 3 -20 -3 -32
-14 -12 -12 -30 -21 -40 -21 -10 0 -18 -4 -18 -10 0 -5 -7 -10 -15 -10 -9 0
-15 9 -15 23 -1 22 -1 22 -15 -3 -13 -23 -14 -23 -15 -4 0 37 51 77 148 115
64 25 69 24 88 -12z m4 -99 c0 -5 -27 -24 -61 -41 -34 -16 -59 -33 -55 -36 7
-8 84 -8 92 -1 8 9 34 -2 34 -14 0 -6 -7 -4 -16 3 -9 8 0 -19 21 -60 25 -50
39 -70 45 -61 6 9 11 7 19 -9 7 -11 8 -21 4 -21 -4 0 -3 -4 3 -8 15 -9 47 -71
51 -97 5 -34 25 -75 33 -70 5 3 6 -3 3 -13 -5 -20 -220 -126 -228 -112 -8 13
-84 333 -91 384 -4 28 -2 51 4 59 9 11 6 13 -18 9 -56 -8 -30 15 63 55 50 23
93 42 95 42 1 1 2 -3 2 -9z m156 -215 c63 -95 114 -176 114 -181 0 -19 -95 98
-131 161 -22 39 -51 88 -64 110 -44 71 -57 98 -45 90 7 -4 64 -85 126 -180z
m-308 -212 c6 -10 13 -43 17 -73 4 -30 13 -80 20 -110 8 -30 23 -118 34 -195
35 -245 97 -441 227 -713 l74 -155 -6 -111 c-8 -133 13 -265 53 -339 15 -26
24 -49 21 -52 -7 -8 -81 91 -108 145 -23 44 -26 59 -33 169 -3 49 -7 58 -42
88 -21 18 -48 33 -59 33 -17 0 -35 22 -76 92 -30 51 -77 127 -104 168 -35 52
-49 84 -47 104 1 19 -11 48 -34 83 -21 31 -35 65 -35 83 0 41 -27 80 -67 97
-32 13 -39 11 -126 -23 -216 -85 -260 -129 -207 -209 11 -16 20 -37 20 -46 0
-9 9 -26 20 -39 11 -13 20 -28 20 -35 0 -7 13 -37 29 -67 16 -30 46 -117 66
-194 55 -208 121 -399 172 -494 l45 -85 -12 -68 c-11 -62 -7 -156 7 -194 9
-23 -36 -15 -63 12 -14 14 -38 54 -54 89 -31 71 -197 353 -284 485 -31 47 -56
94 -56 106 0 11 -16 45 -35 75 -22 34 -33 61 -29 74 3 14 -5 32 -25 54 -27 29
-36 32 -85 32 -31 0 -56 1 -56 3 0 1 15 38 34 82 67 158 144 312 211 420 37
61 74 122 82 137 8 15 19 31 25 34 6 4 8 3 5 -3 -7 -11 49 -123 61 -123 4 0
24 18 46 40 21 22 43 40 47 40 5 0 9 7 9 15 0 22 -60 57 -87 50 -12 -3 -25 -1
-28 5 -4 7 -13 7 -26 0 -27 -15 -24 -4 18 54 156 215 378 475 405 476 4 0 11
-8 16 -17z m377 -63 c12 -20 -19 -43 -122 -92 -57 -27 -103 -53 -103 -60 0
-20 23 -93 33 -103 7 -7 8 -6 3 3 -4 6 -2 12 3 12 6 0 12 -8 12 -17 1 -14 2
-14 5 -3 3 8 -2 40 -10 70 -8 30 -13 56 -12 57 9 9 71 -39 81 -62 10 -23 14
-25 14 -11 1 11 -7 28 -16 38 -15 17 -15 20 -3 28 23 15 30 12 31 -12 0 -13 5
-32 10 -43 6 -14 7 -5 3 29 -5 45 -4 49 10 37 14 -12 16 -12 11 1 -7 17 38 34
57 22 7 -4 8 -3 4 4 -4 8 3 16 20 22 15 6 28 9 29 8 1 -2 8 -14 14 -26 7 -13
15 -21 18 -19 2 3 -1 15 -7 27 -6 12 -9 24 -7 27 10 10 28 -38 22 -58 -7 -20
-8 -20 -28 -2 -12 9 -16 11 -9 3 17 -20 15 -35 -3 -20 -13 11 -14 10 -8 -6 6
-17 5 -17 -10 -5 -15 12 -17 12 -11 -3 12 -31 -16 -16 -30 17 -8 17 -15 25
-15 17 -1 -9 5 -25 13 -36 14 -20 11 -23 -74 -73 -49 -28 -94 -59 -99 -69 -7
-11 -11 -12 -11 -4 0 7 -5 10 -11 6 -6 -3 -7 -10 -2 -15 7 -7 120 33 258 91
43 18 89 30 94 24 3 -3 -2 -10 -12 -15 -9 -6 -15 -15 -11 -20 6 -10 -48 -36
-222 -109 -152 -64 -138 -69 -158 52 -9 56 -20 122 -25 146 -8 41 -7 43 23 59
42 22 218 92 233 92 6 1 15 -4 18 -9z m4428 -97 c-4 -10 -21 -33 -39 -52 l-33
-35 6 40 c7 49 19 64 49 64 18 0 22 -4 17 -17z m72 -13 l26 -10 -22 -40 c-13
-22 -29 -40 -36 -40 -7 0 -13 -8 -13 -18 0 -30 -11 -33 -40 -12 -16 11 -33 20
-40 20 -6 0 -8 5 -5 10 4 6 15 8 24 5 18 -6 51 39 38 52 -8 7 21 43 34 43 4 0
20 -4 34 -10z m105 -77 c0 -4 -7 -14 -16 -24 -17 -19 -18 -18 -72 17 -2 1 4
14 13 28 l17 26 29 -21 c16 -11 29 -23 29 -26z m-4541 4 c-28 -21 -59 -36 -59
-29 0 9 37 30 54 31 5 1 7 0 5 -2z m4461 -35 c0 -4 14 -16 31 -26 17 -10 28
-20 25 -23 -2 -3 -23 6 -45 19 -23 14 -38 28 -34 31 9 9 23 9 23 -1z m141 -14
c23 -29 24 -38 2 -38 -27 1 -56 27 -50 45 9 21 26 19 48 -7z m-4285 -168 c99
-159 182 -315 204 -385 8 -25 34 -59 71 -95 33 -30 59 -61 59 -67 0 -7 -23 13
-51 43 -29 30 -59 54 -68 54 -11 0 -25 24 -45 78 -40 108 -104 229 -250 466
-34 57 -48 92 -27 71 5 -6 53 -80 107 -165z m3974 151 c0 -5 -11 -12 -24 -15
-24 -6 -42 -34 -30 -45 4 -3 9 0 11 7 3 7 18 19 34 27 26 14 32 14 59 0 21
-11 27 -20 23 -32 -5 -12 -2 -15 9 -10 18 6 53 -26 44 -42 -3 -5 -2 -11 4 -13
11 -4 2 -48 -10 -48 -5 0 -21 10 -37 23 -54 44 -102 70 -88 47 15 -24 -38 3
-72 36 -18 17 -17 22 13 49 26 24 64 34 64 16z m177 -21 c49 -28 62 -61 16
-36 -52 28 -83 52 -76 59 8 9 5 9 60 -23z m-4632 2 c-13 -11 -65 -33 -65 -27
0 2 12 11 28 19 30 17 52 21 37 8z m334 -177 c189 -362 228 -443 220 -449 -2
-1 -31 -13 -64 -26 -75 -29 -210 -99 -235 -122 -11 -10 -24 -18 -30 -18 -6 0
-21 -7 -35 -16 -23 -15 -24 -14 -59 48 -19 35 -54 107 -77 160 -23 54 -44 97
-45 95 -2 -2 3 -25 11 -52 20 -66 12 -68 -13 -3 -11 29 -34 90 -52 135 -32 82
-70 214 -70 245 0 12 32 29 118 62 168 65 192 73 230 71 33 -1 36 -4 101 -130z
m4415 129 c22 -9 20 -24 -3 -24 -21 0 -34 13 -24 24 8 7 8 7 27 0z m551 -70
c60 -33 75 -54 39 -54 -8 0 -23 -5 -34 -12 -10 -7 -23 -8 -27 -4 -4 5 -3 10 2
13 25 9 39 23 31 30 -5 4 -11 2 -13 -4 -8 -23 -35 -15 -28 7 5 14 2 20 -9 20
-9 0 -16 -4 -16 -10 0 -5 -11 -10 -24 -10 -17 0 -25 7 -28 25 -10 47 19 47
107 -1z m-862 -30 c21 -14 35 -29 32 -34 -3 -4 4 -6 15 -3 22 6 28 -15 7 -23
-17 -6 -150 69 -140 79 13 14 49 6 86 -19z m296 -41 c-5 -21 -9 -41 -9 -45 0
-13 -30 -9 -30 3 0 17 31 79 40 79 4 0 4 -17 -1 -37z m-230 -90 c58 -34 111
-63 117 -63 6 0 19 21 29 48 10 26 22 52 28 57 7 7 7 4 2 -10 -4 -11 -15 -40
-23 -65 -8 -25 -48 -116 -89 -203 -40 -87 -73 -162 -73 -168 0 -10 -23 -12
-33 -3 -3 4 1 17 10 31 12 18 13 29 5 47 -12 27 -72 73 -72 56 0 -6 -5 -8 -12
-4 -8 5 -7 0 2 -11 14 -17 13 -17 -10 -10 -23 7 -24 6 -11 -9 13 -15 13 -19 0
-26 -9 -6 -27 -1 -54 14 -22 13 -77 42 -122 66 -46 24 -83 48 -83 52 0 20 139
254 178 301 17 19 1 27 211 -100z m889 105 c17 -17 15 -28 -7 -28 -11 0 -23
-4 -26 -10 -10 -16 -25 -12 -25 6 0 15 26 43 41 44 3 0 10 -5 17 -12z m-3410
-83 c-1 -29 -1 -29 -9 5 -5 24 -6 10 -4 -45 l4 -80 -10 69 c-6 38 -7 85 -3
105 l7 36 7 -30 c4 -16 8 -43 8 -60z m3262 15 c30 -28 52 -50 48 -50 -8 0
-106 57 -125 72 -14 12 -8 28 10 28 7 -1 37 -23 67 -50z m194 25 c8 -21 -20
-31 -40 -15 -12 11 -12 15 -2 21 20 13 35 11 42 -6z m-6121 -9 c6 -16 -2 -28
-14 -20 -12 7 -11 34 0 34 5 0 11 -6 14 -14z m85 -1 c8 -7 -19 -35 -34 -35
-12 0 -34 29 -34 46 0 7 60 -2 68 -11z m-54 -44 c3 -4 -3 -16 -13 -25 -17 -15
-19 -16 -25 -1 -3 9 -6 21 -6 26 0 11 37 12 44 0z m5833 -21 c6 0 16 -6 22
-14 15 -18 -2 -56 -24 -56 -17 0 -95 39 -95 48 0 3 12 16 28 28 23 19 29 20
43 8 8 -8 20 -14 26 -14z m303 1 c0 -5 28 -55 63 -112 34 -57 84 -151 111
-209 27 -58 57 -114 65 -124 15 -18 15 -19 -9 -11 -14 4 -41 9 -61 12 -31 4
-39 0 -63 -28 -48 -57 -25 -93 87 -140 15 -6 27 -15 27 -20 0 -23 -71 -155
-89 -166 -16 -10 -37 -11 -88 -3 -47 6 -88 6 -132 -2 l-64 -11 -142 -141 c-92
-92 -147 -156 -159 -183 -16 -37 -56 -68 -82 -64 -3 0 -8 23 -10 50 -2 28 -9
62 -14 76 -19 50 -10 78 71 227 45 82 93 177 107 211 32 80 50 107 72 107 12
0 21 16 34 61 26 96 135 302 198 377 15 18 28 40 28 49 0 18 28 53 42 53 4 0
8 -4 8 -9z m-90 -35 c0 -7 -7 -19 -15 -26 -16 -13 -20 -3 -9 24 8 20 24 21 24
2z m-5851 -69 c16 -20 18 -59 4 -64 -8 -3 -13 4 -13 15 0 11 -7 25 -15 32 -13
11 -15 7 -15 -24 0 -20 -4 -36 -10 -36 -5 0 -7 7 -4 15 4 10 -3 18 -21 25 -31
12 -28 19 18 36 43 16 43 16 56 1z m5595 -33 c31 -25 56 -49 56 -53 0 -22 -88
-166 -100 -165 -14 2 -171 46 -178 50 -3 2 90 141 133 200 16 22 29 17 89 -32z
m196 41 c0 -12 -33 -55 -41 -55 -5 0 -3 14 6 30 13 26 35 41 35 25z m-5885
-60 c0 -11 4 -23 10 -27 5 -4 7 -10 3 -13 -3 -3 -20 7 -37 23 -33 29 -31 45 4
40 12 -2 20 -10 20 -23z m-50 -20 c0 -11 4 -26 8 -32 12 -20 -1 -15 -26 7
l-21 21 -8 -21 c-6 -16 -13 -20 -28 -15 -14 5 -20 2 -20 -10 0 -21 -34 -16
-38 6 -2 10 14 25 45 42 56 30 88 31 88 2z m5824 -128 c-59 -118 -57 -114 -64
-95 -7 18 93 210 106 203 5 -3 -14 -52 -42 -108z m-3233 94 c-7 -11 62 -40
139 -56 46 -10 56 -15 41 -21 -23 -9 -161 9 -199 27 -33 15 -35 36 -4 49 29
11 29 12 23 1z m-2501 -50 c-15 -14 -125 -51 -125 -41 0 4 24 17 53 28 58 22
86 27 72 13z m2995 -47 c12 -5 -201 -63 -233 -64 -4 0 3 11 15 24 15 15 27 20
35 14 15 -12 26 6 19 30 -6 17 -1 18 71 10 43 -4 85 -11 93 -14z m-3160 -15
c0 -6 -4 -7 -10 -4 -5 3 -10 11 -10 16 0 6 5 7 10 4 6 -3 10 -11 10 -16z m304
5 c3 -8 2 -12 -4 -9 -6 3 -10 10 -10 16 0 14 7 11 14 -7z m-177 -42 c2 -33 -1
-39 -33 -54 -47 -24 -51 -23 -64 17 -19 57 -6 70 70 74 22 1 25 -3 27 -37z
m4948 18 c3 -5 2 -10 -4 -10 -5 0 -13 5 -16 10 -3 6 -2 10 4 10 5 0 13 -4 16
-10z m639 -59 c97 -46 122 -64 112 -80 -6 -9 -12 -9 -24 2 -21 19 -173 97
-189 97 -6 0 -15 5 -18 10 -13 21 41 8 119 -29z m-4329 -7 c84 -20 140 -47
156 -76 9 -17 9 -20 -2 -15 -8 3 -43 18 -79 33 -54 23 -80 27 -155 28 -190 0
-351 -93 -430 -248 -27 -54 -45 -64 -45 -26 0 71 136 243 225 285 94 44 192
50 330 19z m-947 -161 c84 -138 89 -148 73 -157 -8 -5 -43 53 -154 256 -39 69
-48 100 -19 59 9 -13 54 -84 100 -158z m5192 123 c0 -9 -23 -66 -26 -66 -3 0
-21 7 -40 15 -35 14 -36 16 -22 37 8 13 18 29 22 35 6 10 14 10 37 -2 16 -9
29 -17 29 -19z m-5392 -52 c7 -14 8 -23 2 -19 -5 3 -10 2 -10 -3 0 -14 26 -62
31 -57 3 2 5 -4 6 -13 0 -9 15 -50 32 -91 35 -84 36 -88 16 -71 -8 7 -15 18
-15 24 0 6 -17 45 -37 86 -20 41 -37 78 -37 81 -2 14 -37 40 -46 34 -5 -3 -10
-1 -10 6 0 7 -2 10 -6 7 -3 -3 16 -66 41 -139 25 -74 55 -165 66 -204 11 -38
42 -114 69 -170 53 -109 57 -121 45 -148 -5 -13 -1 -24 13 -38 26 -24 40 -72
50 -171 9 -86 2 -118 -27 -118 -13 0 -21 -8 -23 -22 -3 -21 -5 -20 -26 12 -30
48 -31 161 -2 229 l21 47 -41 61 c-22 33 -40 67 -40 74 0 7 -16 51 -36 97 -45
104 -167 491 -160 508 3 7 19 12 36 12 16 -1 33 2 37 5 14 15 40 5 51 -19z
m5442 18 c0 -4 -7 -18 -16 -30 -8 -12 -12 -26 -9 -32 3 -5 0 -7 -9 -4 -13 5
-13 10 1 40 15 31 33 45 33 26z m698 -32 c41 -29 52 -53 32 -65 -5 -3 -10 -1
-10 6 0 10 -3 10 -12 1 -19 -19 -28 -14 -28 13 0 21 -5 25 -29 25 -37 0 -50
19 -26 37 25 18 26 17 73 -17z m-680 -174 c-75 -151 -98 -187 -98 -155 0 7 35
77 78 158 44 80 82 155 87 166 4 12 9 15 12 8 2 -6 -33 -86 -79 -177z m-116
122 c109 -68 116 -74 89 -83 -12 -4 -39 2 -67 15 -26 11 -49 18 -52 15 -3 -3
0 -5 6 -5 6 0 18 -7 27 -16 14 -15 14 -19 -5 -51 -24 -42 -25 -50 -3 -32 9 8
14 10 12 4 -20 -45 -34 -65 -46 -65 -8 0 -12 -4 -8 -9 9 -16 -49 5 -105 36
-27 15 -50 32 -50 37 0 12 69 126 91 151 17 19 19 24 19 45 0 15 3 14 92 -42z
m703 41 c11 -17 -1 -21 -15 -4 -8 9 -8 15 -2 15 6 0 14 -5 17 -11z m178 -44
c13 -9 17 -20 12 -34 -6 -20 -7 -20 -29 -4 -14 11 -21 25 -18 35 5 21 11 22
35 3z m-13 -64 c0 -6 -5 -13 -10 -16 -6 -4 -8 -10 -5 -15 3 -5 1 -20 -5 -35
-7 -17 -7 -24 0 -20 6 3 10 13 10 21 0 8 5 14 10 14 15 0 11 -31 -10 -75 -28
-58 -24 -69 5 -13 24 45 59 76 68 61 9 -15 76 -238 110 -368 45 -170 47 -175
37 -175 -5 0 -42 18 -82 40 -140 76 -201 44 -225 -120 -3 -21 -29 -68 -62
-115 -32 -44 -72 -102 -91 -129 -38 -57 -52 -48 -43 28 5 39 14 60 42 92 29
33 43 65 70 160 34 118 105 308 123 331 12 15 17 113 6 107 -5 -3 -8 -12 -8
-20 0 -16 -16 -10 -59 24 l-23 19 46 79 c25 43 46 87 46 97 0 11 6 17 18 15 9
-2 16 3 15 10 -2 6 2 12 7 12 6 0 10 -4 10 -9z m-6768 -26 c16 -35 3 -43 -21
-14 -25 29 -26 39 -6 39 9 0 21 -11 27 -25z m-46 -16 c2 -41 -7 -55 -23 -33
-7 10 -13 14 -13 10 0 -5 -7 -3 -15 4 -21 17 -19 29 8 40 31 12 42 7 43 -21z
m-65 -20 c9 -17 8 -24 -4 -36 -12 -13 -16 -12 -30 1 -19 19 -28 21 -22 4 2 -7
-2 -22 -10 -32 -15 -19 -15 -19 -38 2 -22 21 -23 21 -35 2 -7 -11 -19 -20 -27
-20 -33 0 6 40 68 70 75 35 83 36 98 9z m6034 1 c3 -5 1 -10 -4 -10 -6 0 -11
5 -11 10 0 6 2 10 4 10 3 0 8 -4 11 -10z m1365 -30 c0 -5 -2 -10 -4 -10 -3 0
-8 5 -11 10 -3 6 -1 10 4 10 6 0 11 -4 11 -10z m-7240 -49 c13 -25 13 -34 0
-26 -16 10 -32 45 -21 45 6 0 15 -9 21 -19z m900 5 c0 -18 -27 -29 -33 -13 -2
6 -12 -1 -21 -16 -20 -30 -36 -35 -36 -12 0 8 -4 15 -10 15 -5 0 -10 -12 -10
-26 0 -18 -4 -25 -14 -21 -7 3 -19 0 -25 -6 -8 -8 -14 -6 -23 6 -11 15 -13 12
-12 -23 1 -22 -2 -43 -7 -46 -5 -3 -9 7 -9 21 0 14 -4 24 -9 21 -5 -4 -12 0
-15 6 -3 7 -4 -4 -1 -24 5 -31 3 -38 -10 -38 -9 0 -19 9 -22 20 -3 11 -9 20
-14 20 -5 0 -6 -7 -2 -16 4 -12 1 -15 -13 -12 -10 2 -20 11 -22 20 -4 23 62
64 168 104 94 35 140 42 140 20z m-1172 -21 c-3 -3 -9 2 -12 12 -6 14 -5 15 5
6 7 -7 10 -15 7 -18z m5983 -2 c55 -32 55 -31 8 -125 -27 -54 -29 -65 -29
-181 0 -147 -10 -186 -73 -284 -48 -75 -52 -79 -76 -64 -12 8 -12 14 3 38 l17
28 -21 -25 -22 -24 -121 61 c-67 34 -141 69 -164 79 -24 9 -43 21 -43 27 0 5
19 46 43 90 50 95 100 141 193 181 38 16 75 34 82 39 6 5 35 49 63 98 58 101
65 104 140 62z m-5819 -37 c6 -14 8 -31 5 -39 -7 -17 -74 -28 -82 -12 -3 5 -3
0 -1 -13 3 -17 -2 -26 -20 -34 -25 -12 -34 -9 -38 14 -1 7 -4 18 -7 23 -22 38
-19 47 14 45 58 -3 69 -1 64 14 -13 33 50 34 65 2z m1008 6 c0 -13 -12 -22
-22 -16 -10 6 -1 24 13 24 5 0 9 -4 9 -8z m5644 -62 c65 -31 70 -40 50 -91 -9
-24 -46 -132 -83 -240 -55 -165 -72 -203 -103 -238 -37 -40 -38 -43 -38 -122
l0 -80 -79 -152 -78 -152 -77 -6 c-46 -4 -86 -13 -102 -24 -25 -16 -28 -16
-36 -1 -29 52 -76 37 -114 -36 -13 -26 -28 -50 -34 -53 -6 -4 3 20 21 53 51
97 28 92 -35 -7 -59 -93 -67 -124 -20 -80 l25 24 -10 -28 c-15 -40 -4 -79 20
-72 11 4 19 4 19 0 0 -17 -72 -115 -84 -115 -9 0 -23 -9 -34 -20 -18 -19 -19
-19 -78 -1 -32 10 -70 23 -84 30 -20 9 -18 6 9 -18 19 -17 35 -42 37 -55 l3
-26 -37 16 c-20 8 -79 40 -130 70 -51 31 -99 53 -107 50 -8 -3 -15 -17 -15
-30 0 -20 12 -33 58 -62 31 -20 71 -45 88 -57 l32 -21 -27 -14 c-23 -12 -30
-11 -61 5 -19 10 -37 20 -40 23 -3 4 -22 14 -43 24 -22 10 -35 22 -31 28 5 7
2 8 -5 3 -7 -4 -11 -16 -8 -26 4 -14 0 -19 -14 -19 -10 0 -19 -5 -19 -10 0 -6
-12 -9 -27 -8 -25 3 -28 0 -28 -29 0 -17 3 -29 8 -26 15 9 27 -8 17 -26 -7
-14 -5 -23 9 -35 10 -9 21 -13 24 -9 4 3 7 0 7 -9 0 -8 27 -34 61 -59 33 -24
56 -45 50 -47 -6 -2 -55 21 -109 51 -97 55 -119 57 -106 12 6 -18 4 -18 -19 4
-37 34 -43 71 -18 118 12 21 93 157 182 303 89 146 226 380 306 520 80 140
157 272 171 293 31 46 109 105 157 118 23 7 40 19 47 35 6 13 14 24 17 24 18
-2 96 -48 105 -62 16 -26 -5 -53 -41 -53 -20 -1 -41 -12 -67 -37 -30 -29 -33
-35 -16 -31 20 5 21 4 11 -16 -8 -15 -9 -21 -1 -21 6 0 8 -5 5 -10 -4 -6 -11
-8 -16 -5 -5 4 -9 2 -9 -3 0 -5 9 -12 20 -15 13 -3 18 -10 14 -21 -8 -20 -33
-21 -40 -1 -4 8 -17 15 -30 15 -13 0 -24 5 -24 11 0 8 -5 8 -15 -1 -17 -14
-20 -46 -5 -55 6 -3 10 -11 10 -18 0 -8 -3 -8 -12 1 -18 18 -27 15 -37 -12 -5
-13 -19 -26 -31 -29 -18 -4 -20 -2 -14 16 6 21 6 21 -9 3 -13 -18 -13 -22 8
-38 18 -14 27 -15 51 -6 24 9 38 7 81 -12 84 -36 106 -78 69 -135 -14 -21 -24
-25 -64 -25 -59 0 -90 16 -119 59 -14 21 -23 28 -23 18 0 -16 -3 -16 -42 0
l-41 16 -25 -28 -25 -29 40 -36 c22 -19 102 -72 176 -116 75 -45 134 -83 132
-85 -2 -2 29 -5 68 -6 l72 -2 72 152 c53 111 75 171 83 221 12 79 29 125 54
145 25 21 33 40 81 180 24 69 60 164 79 211 20 46 36 92 36 101 0 20 -53 55
-113 75 -34 12 -36 13 -10 10 17 -3 52 -15 77 -26z m-710 -62 l-37 -73 17 -85
c20 -105 20 -134 1 -150 -13 -11 -15 -6 -15 38 0 28 -6 76 -14 105 -10 40 -12
66 -5 97 13 58 56 140 74 140 12 0 6 -18 -21 -72z m565 55 c3 -2 -11 -20 -30
-41 -72 -76 -121 -143 -116 -157 4 -8 -6 -25 -24 -39 -34 -29 -30 -49 7 -40
20 5 24 3 24 -16 0 -17 -4 -21 -20 -17 -31 8 -23 -6 12 -23 18 -8 34 -20 36
-27 2 -7 -23 3 -55 23 -32 19 -57 39 -56 44 2 5 -3 7 -10 4 -7 -2 -32 10 -55
27 l-42 31 39 46 c21 26 67 73 102 105 35 31 73 66 84 76 15 14 30 17 60 13
22 -2 42 -6 44 -9z m-5569 -34 c0 -6 9 -8 20 -4 45 14 16 -7 -53 -39 -92 -42
-114 -49 -121 -37 -8 12 22 43 34 36 5 -3 10 -1 12 4 3 8 84 48 101 50 4 1 7
-4 7 -10z m-736 -45 c3 -8 2 -12 -4 -9 -6 3 -10 10 -10 16 0 14 7 11 14 -7z
m-139 -76 c26 -46 49 -84 50 -85 1 -2 36 11 79 27 90 35 86 34 86 15 0 -8 -9
-15 -20 -15 -16 0 -60 -31 -60 -43 0 -10 61 7 71 19 6 8 15 14 19 14 5 0 28
-37 53 -82 24 -46 60 -113 81 -149 l36 -66 -89 -47 c-147 -76 -291 -125 -291
-99 0 3 7 14 15 23 14 16 14 17 -7 13 -22 -4 -27 4 -67 126 -24 72 -42 133
-40 135 2 1 13 8 24 15 17 10 16 11 -12 6 -39 -8 -41 0 -11 32 12 13 17 23 11
23 -13 0 -76 178 -69 196 3 8 18 14 33 14 24 0 30 -6 41 -42 7 -24 23 -63 35
-86 20 -41 20 -45 4 -57 -30 -22 -18 -24 23 -4 45 22 51 30 18 22 -13 -3 -20
-3 -16 2 4 4 -9 38 -28 75 -34 67 -42 100 -25 100 5 0 31 -37 56 -82z m1015
-8 c24 -49 41 -93 37 -97 -12 -11 -24 7 -67 96 -45 93 -45 91 -27 91 7 0 33
-40 57 -90z m-76 38 c18 -34 21 -52 6 -28 -7 11 -12 12 -21 3 -16 -16 10 -51
36 -47 19 3 19 2 2 -10 -16 -12 -16 -16 -2 -42 l15 -29 -80 -39 c-45 -21 -83
-37 -85 -34 -3 3 -17 44 -31 92 -25 83 -25 88 -8 107 9 10 24 19 33 20 9 0 34
9 56 19 55 25 61 25 79 -12z m-1126 -139 c70 -219 153 -448 189 -529 l35 -75
-18 -57 c-16 -55 -16 -127 1 -198 4 -18 0 -14 -15 13 -12 21 -64 108 -116 193
-86 141 -94 158 -94 205 0 44 -4 55 -31 80 -18 16 -47 32 -69 35 l-37 6 18
117 c30 193 68 353 83 348 6 -2 30 -64 54 -138z m373 109 c11 -21 11 -22 -4
-9 -10 7 -17 17 -17 22 0 15 9 10 21 -13z m4851 1 c-2 -8 -9 -20 -15 -27 -8
-11 -13 -9 -23 10 -18 32 -18 34 14 32 17 -1 26 -6 24 -15z m-5153 -73 c12
-37 20 -70 18 -72 -2 -2 -12 19 -21 48 -30 90 -36 112 -27 102 5 -5 18 -40 30
-78z m1055 58 c3 -8 2 -12 -4 -9 -6 3 -10 10 -10 16 0 14 7 11 14 -7z m156
-113 c0 -4 -39 -23 -87 -41 -49 -18 -109 -41 -135 -51 -76 -30 -55 -5 25 29
161 70 197 81 197 63z m29 -50 c8 -15 7 -20 -5 -25 -9 -3 -20 -3 -26 0 -6 4
-8 -2 -6 -12 2 -15 11 -18 35 -16 29 3 34 -1 54 -40 28 -56 89 -158 107 -180
14 -16 9 -21 -59 -52 -143 -65 -344 -134 -355 -123 -19 18 22 38 199 97 122
40 196 70 197 78 0 8 -9 12 -22 11 -13 -2 -29 0 -35 4 -9 5 -11 3 -7 -6 4 -11
-16 -23 -69 -45 -72 -30 -253 -92 -269 -92 -4 0 -8 10 -8 23 0 12 -10 80 -22
150 -19 110 -20 129 -7 141 18 16 244 102 276 105 7 1 17 -8 22 -18z m5675 0
c3 -4 -3 -16 -14 -26 -26 -23 -52 -6 -30 20 14 17 36 20 44 6z m60 -24 c16
-12 16 -14 2 -26 -9 -8 -16 -20 -16 -27 0 -8 -4 -14 -10 -14 -5 0 -10 7 -10
16 0 9 -9 18 -20 21 -21 6 -23 28 -2 28 5 0 14 3 18 8 10 10 18 9 38 -6z m63
-48 c-3 -10 0 -20 7 -23 17 -7 -30 -7 -48 0 -20 8 -20 18 -1 38 20 19 48 9 42
-15z m-2007 7 c0 -3 -4 -8 -10 -11 -5 -3 -10 -1 -10 4 0 6 5 11 10 11 6 0 10
-2 10 -4z m1920 -67 c90 -50 101 -61 77 -76 -21 -13 -89 -179 -152 -373 -15
-47 -55 -148 -88 -224 -50 -116 -58 -143 -48 -158 7 -11 14 -47 17 -81 l6 -62
-92 -180 c-51 -99 -132 -250 -180 -335 -47 -85 -113 -204 -145 -265 -85 -160
-105 -189 -118 -176 -14 14 -4 36 152 305 71 122 146 257 167 301 22 44 70
137 107 207 73 136 79 164 62 280 -6 38 0 57 45 158 28 63 69 165 90 225 59
168 129 348 140 359 10 10 -28 38 -107 76 -42 21 -63 40 -44 40 6 0 11 7 11
15 0 8 2 15 5 15 3 0 46 -23 95 -51z m-1459 -16 c48 -24 104 -59 125 -78 36
-31 31 -30 -61 21 -55 30 -121 64 -147 76 -49 22 -66 45 -25 33 12 -4 61 -27
108 -52z m1607 29 c13 -19 12 -22 -2 -28 -20 -8 -21 -7 -30 29 -8 34 9 33 32
-1z m-194 -78 c26 -19 51 -32 58 -28 8 5 9 2 4 -12 -7 -16 -34 -92 -51 -142
-3 -9 -29 0 -87 29 -46 23 -84 43 -86 44 -7 6 92 145 103 145 7 0 33 -16 59
-36z m-6340 -90 c29 -53 35 -58 95 -80 99 -35 140 -70 193 -166 36 -66 19 -60
-36 11 -59 76 -97 108 -172 141 -55 25 -64 34 -98 93 -20 36 -36 69 -36 73 0
16 24 -17 54 -72z m6576 -11 c6 -49 16 -115 21 -149 5 -33 9 -111 9 -172 0
-103 -2 -112 -19 -112 -10 0 -35 -18 -55 -40 -28 -31 -36 -48 -35 -73 3 -39
-10 -64 -123 -244 -81 -129 -93 -143 -118 -143 -16 0 -36 -3 -45 -6 -13 -5
-11 5 11 47 32 60 42 146 26 217 -9 38 -6 51 25 125 19 45 50 127 68 182 92
274 136 380 173 418 20 20 39 37 43 37 4 0 12 -39 19 -87z m-875 57 c0 -22
-29 -18 -33 3 -3 14 1 18 15 15 10 -2 18 -10 18 -18z m-4790 -170 c42 -85 46
-88 84 -95 85 -14 204 -116 173 -147 -8 -8 -16 -3 -28 18 -25 43 -82 83 -146
102 l-57 17 -43 94 c-54 119 -53 115 -39 107 6 -4 32 -47 56 -96z m-85 60 c0
-5 -2 -10 -4 -10 -3 0 -8 5 -11 10 -3 6 -1 10 4 10 6 0 11 -4 11 -10z m-1140
-50 c11 -22 30 -65 42 -97 13 -35 24 -51 26 -40 2 9 9 17 17 17 7 0 16 7 19
16 5 13 9 14 20 5 10 -8 15 -8 18 -1 5 16 75 25 92 11 18 -15 10 -43 -16 -60
-17 -11 -22 -10 -29 0 -4 8 -11 10 -16 6 -4 -5 -1 -12 7 -17 8 -5 12 -11 10
-13 -19 -17 -100 -57 -114 -57 -13 0 -16 -5 -11 -20 4 -13 2 -20 -7 -20 -7 0
-21 -18 -30 -40 -9 -22 -21 -40 -26 -40 -25 0 -29 111 -6 170 16 39 16 40 -21
126 -29 68 -34 88 -24 95 18 11 26 4 49 -41z m1098 -27 c11 -32 26 -73 34 -91
12 -32 12 -35 -14 -55 l-27 -22 47 -1 c57 -1 153 -44 176 -79 16 -25 16 -25
-16 -39 -192 -82 -291 -127 -389 -177 -64 -32 -121 -59 -127 -59 -6 0 -17 19
-25 43 -19 52 -23 18 -6 -51 15 -58 15 -59 36 -40 29 25 199 112 318 163 89
38 384 155 391 155 3 0 71 -142 99 -205 13 -28 35 -107 50 -175 15 -69 41
-163 57 -209 27 -78 28 -84 13 -101 -28 -31 -157 -93 -375 -180 -293 -117
-594 -247 -654 -282 -28 -16 -70 -48 -94 -71 -35 -35 -44 -39 -52 -27 -26 39
-23 61 11 96 66 68 239 166 397 226 28 11 52 21 52 23 0 1 -32 77 -71 166
-177 407 -209 490 -209 542 0 38 30 108 67 156 l26 34 -32 99 c-18 55 -31 101
-29 103 1 1 46 18 98 38 52 19 120 44 150 55 30 12 60 21 67 21 6 1 20 -25 31
-56z m-1628 23 c0 -16 -37 -32 -48 -21 -7 7 25 35 40 35 4 0 8 -6 8 -14z m175
-83 c27 -40 31 -53 16 -53 -5 0 -21 20 -34 45 -31 54 -18 60 18 8z m-145 21
c0 -6 -65 -34 -81 -34 -19 0 -1 14 34 27 37 13 47 15 47 7z m2482 -41 c31 -29
64 -87 80 -138 33 -111 40 -345 12 -415 l-18 -44 -12 35 c-7 20 -10 61 -7 99
9 115 -53 300 -120 356 -36 30 -51 20 -60 -40 -6 -37 -5 -38 13 -21 17 16 19
16 30 -4 8 -17 7 -30 -8 -64 -38 -86 -37 -121 3 -77 30 33 33 23 9 -27 -13
-27 -27 -64 -30 -83 l-7 -35 26 23 c24 23 26 23 36 5 9 -16 12 -16 21 -3 15
22 1 -44 -21 -102 -14 -36 -15 -46 -5 -42 10 4 19 -10 31 -45 17 -52 80 -156
108 -180 14 -11 17 -31 17 -98 0 -83 0 -84 -22 -78 -65 20 -142 114 -177 217
-19 55 -50 222 -69 373 -20 150 7 355 51 403 28 31 78 24 119 -15z m2537 21
c40 -29 54 -79 59 -223 10 -290 -58 -601 -158 -714 -28 -33 -77 -67 -95 -67
-3 0 -5 36 -5 81 0 79 1 81 39 127 46 56 53 69 86 160 l25 69 -20 46 c-11 25
-17 53 -14 62 7 16 19 16 77 -1 16 -5 18 -2 12 18 -4 12 -16 38 -27 55 -11 18
-17 43 -15 55 l4 23 8 -22 c8 -25 35 -39 35 -18 0 8 -8 36 -19 62 -15 39 -16
50 -6 60 7 6 15 9 18 7 3 -3 10 3 16 14 12 23 -5 93 -25 99 -20 7 -65 -39 -94
-98 -50 -98 -73 -201 -66 -287 5 -47 3 -86 -5 -109 -17 -51 -26 -28 -41 105
-24 223 29 434 125 492 39 24 56 25 86 4z m-4969 -55 c0 -10 -3 -18 -7 -17 -5
0 -25 -6 -45 -15 -48 -22 -55 -21 -62 5 -7 30 1 37 55 47 51 9 59 7 59 -20z
m140 -27 c0 -4 -15 -12 -32 -18 -18 -6 -70 -28 -115 -47 -59 -26 -83 -32 -83
-23 0 16 42 37 139 72 70 25 91 29 91 16z m881 -49 c94 -45 140 -78 124 -90
-6 -5 -10 -15 -10 -23 2 -31 -7 -28 -59 14 -73 59 -138 80 -235 74 -125 -8
-237 -79 -280 -179 -30 -69 -38 -171 -17 -229 8 -24 13 -46 11 -48 -2 -2 -17
20 -34 49 -51 90 -53 228 -3 308 69 113 192 174 338 168 71 -3 92 -8 165 -44z
m-828 -48 c48 -80 147 -276 147 -290 0 -20 -273 -145 -318 -145 -11 0 -112
350 -112 388 0 15 212 103 239 99 8 -1 28 -25 44 -52z m681 -19 c-3 -8 -15
-17 -27 -20 -19 -4 -19 -4 3 -4 91 1 128 -4 146 -18 10 -8 14 -13 9 -11 -20
10 -175 -13 -231 -34 -69 -26 -135 -84 -164 -145 -20 -40 -21 -50 -11 -114 6
-39 20 -90 30 -113 10 -23 23 -51 27 -62 7 -16 9 -11 12 23 2 23 7 42 12 42 5
0 7 6 4 14 -3 7 3 22 13 31 10 10 18 23 18 29 0 6 9 10 20 8 12 -2 16 0 9 5
-7 4 -14 17 -17 28 -4 19 -5 18 -6 -2 -1 -22 -57 -70 -68 -59 -4 3 0 6 7 6 7
0 1 9 -13 20 -29 23 -42 66 -32 108 9 42 73 108 128 131 87 37 92 22 7 -20
-54 -27 -78 -44 -70 -49 8 -5 27 0 47 11 37 21 68 24 78 9 3 -6 17 -7 29 -4
18 4 29 -2 50 -26 14 -17 26 -27 26 -21 0 6 -14 26 -31 46 -18 20 -30 38 -27
40 10 10 55 -24 70 -54 9 -19 22 -39 27 -44 16 -16 14 -23 -15 -36 -20 -9 -30
-9 -40 0 -11 9 -14 8 -14 -4 0 -9 -8 -21 -17 -26 -10 -6 -14 -11 -9 -11 6 0 1
-7 -10 -15 -17 -13 -14 -13 25 0 63 22 64 18 3 -11 -58 -28 -66 -43 -11 -21
85 34 80 33 116 41 12 2 43 14 69 25 54 24 74 26 74 8 0 -8 15 -45 34 -83 66
-137 96 -213 96 -245 0 -28 -10 -43 -61 -92 -34 -32 -63 -56 -66 -54 -2 3 -25
-2 -50 -9 -66 -20 -111 -17 -171 11 -30 14 -56 25 -59 25 -12 0 22 -32 48 -46
33 -16 204 -20 214 -4 3 6 12 10 18 9 7 0 2 -7 -10 -16 -33 -23 -28 -40 15
-47 50 -8 119 27 152 78 29 45 41 26 15 -26 -27 -57 -115 -105 -200 -109 -27
-2 -26 -3 10 -10 31 -6 21 -7 -40 -5 -65 1 -90 7 -137 30 -32 16 -64 36 -72
45 -9 10 14 3 54 -17 38 -18 86 -35 107 -38 32 -4 29 -2 -18 14 -31 11 -91 41
-133 67 -75 46 -77 49 -127 146 -28 55 -55 99 -59 99 -18 0 -91 152 -105 217
-22 102 -19 142 15 210 40 79 107 131 197 152 61 15 93 13 87 -3z m6544 -121
l42 -17 -25 -24 c-31 -29 -55 -32 -30 -4 10 11 15 23 11 28 -4 4 -13 -1 -20
-11 -18 -23 -30 -22 -23 4 5 19 4 20 -12 5 -36 -32 -62 -12 -30 23 12 12 26
20 33 18 6 -3 30 -13 54 -22z m-6413 9 c20 -8 45 -56 45 -86 0 -19 -38 -58
-43 -46 -4 8 -25 45 -38 67 -11 18 -11 25 -1 28 19 7 14 23 -8 23 -11 0 -20 5
-20 10 0 11 39 13 65 4z m1824 -13 c8 -5 9 -11 3 -15 -5 -3 -15 1 -22 9 -14
16 -3 20 19 6z m3494 -4 c-32 -51 -67 -97 -70 -93 -5 4 66 106 73 106 3 0 1
-6 -3 -13z m-5345 -110 c-2 -18 -9 -13 -35 30 -19 31 -30 59 -26 69 8 22 65
-70 61 -99z m3358 73 c41 -14 72 -33 95 -57 l34 -37 -34 27 c-18 15 -46 34
-61 42 -37 19 -109 35 -115 25 -3 -4 12 -11 33 -15 45 -8 117 -78 127 -123 4
-21 14 -32 31 -36 13 -4 24 -11 24 -17 0 -6 -6 -6 -17 -1 -29 16 -201 51 -316
66 -60 8 -111 17 -114 20 -12 12 17 56 48 71 17 9 28 12 25 6 -4 -7 -1 -8 8
-5 9 3 16 11 16 16 0 6 9 8 20 5 11 -3 18 -2 15 3 -5 9 18 20 41 20 9 0 12 -4
9 -10 -9 -15 7 -12 29 5 25 19 30 19 102 -5z m-3511 0 c19 -8 19 -9 -2 -9 -12
-1 -25 4 -28 9 -7 12 2 12 30 0z m2286 -1 c55 -12 66 -19 102 -58 12 -14 30
-33 40 -43 16 -17 15 -18 -29 -18 -58 0 -240 -26 -315 -46 -88 -22 -95 -20
-68 17 40 56 91 101 143 125 36 17 42 22 21 18 -52 -10 -91 -32 -134 -76 -49
-51 -54 -37 -8 24 47 62 132 82 248 57z m4359 -21 c-37 -30 -55 -21 -24 13 9
10 23 15 31 12 14 -5 12 -9 -7 -25z m-121 -27 c10 -10 24 -20 32 -23 9 -3 -7
-41 -51 -129 -36 -68 -82 -159 -103 -202 -26 -53 -43 -77 -52 -74 -10 5 -11
-1 -5 -23 5 -16 11 -34 15 -40 3 -5 2 -10 -3 -10 -6 0 -16 -24 -22 -52 -12
-52 -33 -101 -52 -125 -8 -10 -18 -6 -44 16 -55 49 -171 51 -242 5 -13 -9 -25
-14 -27 -12 -6 6 96 212 121 246 24 31 28 32 93 32 l68 0 63 103 c34 56 90
148 124 204 33 56 62 103 64 103 1 0 10 -8 21 -19z m142 -8 c-8 -15 -10 -15
-11 -2 0 17 10 32 18 25 2 -3 -1 -13 -7 -23z m-6397 -40 c-10 -7 -37 -18 -59
-24 -22 -6 -48 -15 -57 -20 -10 -5 -23 -9 -30 -8 -7 0 23 18 67 39 75 36 121
43 79 13z m4241 7 c3 -5 1 -10 -4 -10 -6 0 -11 5 -11 10 0 6 2 10 4 10 3 0 8
-4 11 -10z m2102 -18 c-2 -4 -45 -96 -97 -205 l-94 -198 12 -45 c25 -92 18
-118 -73 -305 -47 -96 -110 -217 -139 -269 -30 -52 -98 -176 -153 -275 -85
-155 -102 -180 -124 -183 -14 -2 -31 4 -39 12 -7 9 -21 16 -31 16 -11 0 -19 5
-19 11 0 6 8 8 20 4 10 -3 35 -3 54 1 32 6 39 13 70 78 19 39 60 112 92 161
127 199 174 285 212 385 22 58 53 132 68 165 24 51 28 74 29 155 2 106 5 115
116 340 33 69 65 135 70 148 5 13 14 20 19 17 6 -4 9 -9 7 -13z m-6971 -79
c20 -38 52 -90 71 -118 40 -61 41 -70 5 -51 -20 10 -35 32 -49 68 -12 29 -33
79 -47 111 -14 31 -24 57 -22 57 2 0 21 -30 42 -67z m-487 -138 l61 -181 -15
-78 c-31 -164 -27 -178 220 -726 113 -250 119 -263 105 -255 -6 3 -10 12 -10
19 0 23 -22 37 -39 24 -9 -7 -13 -8 -9 -4 5 5 -2 14 -14 20 -20 10 -71 111
-98 196 -5 14 -37 102 -73 195 -126 334 -150 433 -182 770 -8 94 -17 180 -19
193 -8 52 15 -3 73 -173z m4601 166 c0 -20 -19 -41 -36 -41 -8 0 -7 10 4 34
16 35 32 39 32 7z m-4212 -4 c2 -12 -3 -17 -18 -17 -11 0 -31 -7 -43 -15 -36
-23 -237 -105 -259 -105 -11 0 -18 5 -16 12 5 15 180 91 252 110 26 7 51 18
53 26 7 17 27 10 31 -11z m2927 -11 c18 -13 18 -14 1 -42 -46 -72 -85 -99
-168 -114 -85 -16 -150 2 -206 57 -50 50 -48 56 26 67 35 5 48 2 69 -14 51
-40 133 -17 133 37 0 22 4 23 63 23 38 0 71 -6 82 -14z m855 -15 c30 -57 93
-69 136 -26 20 20 29 23 48 15 13 -5 27 -14 31 -20 3 -5 10 -8 15 -5 5 3 12 0
15 -6 10 -15 -42 -67 -84 -85 -18 -8 -65 -14 -103 -14 -56 0 -80 5 -117 25
-45 25 -89 75 -83 96 1 6 -2 8 -7 5 -5 -3 -11 1 -14 8 -7 18 11 23 90 25 52 1
64 -2 73 -18z m110 9 c27 -17 -34 -32 -70 -16 -17 7 -27 15 -23 19 10 10 76 8
93 -3z m-1140 -15 c-14 -16 -65 -20 -75 -6 -6 11 16 18 59 20 24 1 27 -1 16
-14z m4657 -17 c-3 -8 -6 -5 -6 6 -1 11 2 17 5 13 3 -3 4 -12 1 -19z m-7346
-73 l39 -86 73 -33 c43 -19 84 -47 101 -67 30 -35 76 -129 76 -154 0 -8 4 -15
9 -15 5 0 28 -48 51 -107 22 -60 71 -172 107 -251 57 -124 64 -145 52 -157
-12 -12 -19 -3 -51 73 -20 48 -51 119 -67 157 -17 39 -45 111 -62 162 -23 68
-35 90 -45 86 -13 -5 -13 -7 -1 -17 18 -14 37 -70 37 -109 0 -26 46 -150 124
-334 21 -52 24 -66 15 -92 -6 -17 -14 -31 -17 -31 -4 0 -20 22 -35 50 -36 65
-52 73 -27 15 11 -26 20 -59 20 -74 0 -43 -23 -59 -205 -137 -55 -24 -95 -44
-88 -44 6 0 69 25 140 55 88 39 137 66 157 88 l28 32 -7 -30 c-4 -16 -11 -47
-15 -68 -4 -22 -14 -45 -21 -52 -8 -7 -59 -32 -114 -55 -72 -31 -112 -42 -144
-41 -24 1 -46 3 -50 6 -4 2 -23 0 -43 -4 -20 -5 -41 -6 -46 -2 -6 3 -28 47
-50 96 -22 50 -74 168 -116 263 -42 96 -86 192 -97 213 -42 84 -42 85 4 115
23 14 51 40 62 58 17 25 42 39 143 77 67 26 143 57 168 70 l46 22 54 -29 c71
-38 82 -27 53 50 -29 75 -84 135 -155 170 -79 38 -90 50 -130 128 -36 72 -40
88 -23 88 6 0 28 -38 50 -85z m3668 -58 c69 -22 191 -23 234 -1 18 9 49 32 69
52 21 20 41 33 45 29 3 -4 -14 -27 -40 -52 -56 -53 -162 -91 -229 -82 -58 8
-161 61 -197 103 -48 55 -36 65 17 14 31 -30 65 -51 101 -63z m-1140 -1 c97
-44 266 -16 340 56 17 17 31 25 31 18 0 -24 -66 -77 -124 -99 -116 -43 -248
-21 -323 54 -24 23 -43 49 -43 56 0 8 17 -4 37 -25 20 -21 57 -48 82 -60z
m-2739 -42 c15 -54 10 -73 -13 -50 -9 10 -17 14 -17 9 -1 -4 -9 8 -20 27 -11
19 -19 31 -20 27 0 -4 12 -31 28 -59 15 -28 31 -59 37 -69 12 -23 28 -24 60
-3 33 22 77 11 120 -31 23 -21 35 -42 35 -59 0 -33 -35 -70 -61 -63 -10 3 -17
1 -14 -3 8 -13 -17 -18 -49 -9 -16 5 -26 6 -23 3 7 -7 -30 -44 -44 -44 -5 0
-7 5 -3 12 5 7 2 8 -7 3 -30 -17 -59 -49 -59 -66 0 -22 -13 -31 -34 -23 -17 6
-36 62 -36 105 0 38 28 126 46 144 11 11 13 19 6 28 -9 11 -52 116 -69 168 -3
13 6 21 39 32 42 15 43 15 65 -11 12 -14 27 -44 33 -68z m2584 1 c4 -27 3 -33
-2 -20 -13 29 -24 93 -13 75 5 -8 12 -33 15 -55z m2951 17 c-3 -3 -11 0 -18 7
-9 10 -8 11 6 5 10 -3 15 -9 12 -12z m-2732 -94 c54 -11 106 -7 195 18 9 2 1
-3 -18 -12 -53 -26 -141 -29 -216 -9 -35 9 -67 21 -70 26 -9 14 -24 10 -18 -5
3 -7 28 -26 56 -41 44 -24 63 -28 138 -29 49 -1 86 -5 83 -10 -3 -4 -25 -17
-49 -28 -50 -22 -125 -17 -168 11 -33 22 -79 90 -72 107 3 7 1 16 -4 19 -6 4
-10 10 -10 15 0 5 21 -4 48 -20 26 -17 73 -35 105 -42z m4734 20 c-3 -7 -5 -2
-5 12 0 14 2 19 5 13 2 -7 2 -19 0 -25z m-3565 -16 c43 -2 92 1 110 7 24 9 30
9 21 0 -42 -42 -238 -27 -268 20 -3 5 9 2 27 -7 19 -10 65 -18 110 -20z
m-3962 -14 c0 -13 -23 -5 -28 10 -2 7 2 10 12 6 9 -3 16 -11 16 -16z m5485
-30 c6 -5 22 -17 38 -29 37 -28 34 -45 -4 -22 -39 23 -69 51 -69 64 0 10 13 5
35 -13z m-5587 -13 c-3 -3 -9 2 -12 12 -6 14 -5 15 5 6 7 -7 10 -15 7 -18z
m7619 -12 c-3 -10 -5 -4 -5 12 0 17 2 24 5 18 2 -7 2 -21 0 -30z m-10 -55 c-3
-7 -5 -2 -5 12 0 14 2 19 5 13 2 -7 2 -19 0 -25z m-5077 -111 c0 -16 11 -56
24 -90 14 -34 45 -120 69 -192 48 -140 141 -358 155 -363 5 -1 7 -15 5 -30 -3
-19 -2 -23 5 -13 8 10 13 5 23 -22 7 -20 15 -34 19 -32 3 2 27 -38 53 -89 25
-51 63 -113 82 -136 20 -24 45 -60 56 -81 24 -48 35 -55 43 -25 7 28 32 56 49
56 7 0 4 -5 -5 -11 -10 -5 -18 -20 -18 -32 1 -20 2 -21 14 -4 7 9 18 17 25 17
6 0 11 9 11 21 0 12 4 17 11 14 6 -4 13 2 16 14 3 12 12 21 20 21 11 0 14 -9
11 -35 -2 -19 -3 -35 -2 -35 0 0 14 22 31 48 29 47 110 122 131 122 6 0 5 -16
-4 -47 -8 -25 -14 -52 -14 -60 0 -25 16 -13 28 21 13 34 73 96 93 96 6 0 8
-17 3 -45 -8 -58 9 -60 29 -2 7 23 18 42 23 42 5 0 14 -22 20 -50 l11 -50 8
53 c5 32 13 52 20 52 16 0 57 -47 91 -106 14 -24 27 -44 28 -44 2 0 -1 25 -6
56 -5 31 -7 58 -5 60 11 11 99 -72 127 -118 20 -34 30 -44 26 -28 -2 14 1 36
8 49 l13 23 21 -27 c12 -15 22 -33 22 -41 0 -7 6 -14 13 -17 6 -2 0 -8 -15
-12 -29 -7 -32 -13 -22 -39 3 -8 13 -12 22 -9 11 3 13 2 6 -4 -6 -4 -13 -16
-17 -25 -3 -10 -12 -18 -19 -17 -9 0 -9 2 -2 5 7 3 10 14 7 25 -5 17 -10 12
-33 -28 -15 -26 -37 -56 -48 -66 -21 -19 -21 -19 -15 36 4 35 2 57 -6 61 -7 5
-11 -1 -11 -14 0 -34 -38 -100 -54 -94 -8 3 -23 -5 -35 -17 l-21 -23 5 65 5
64 -13 -41 c-15 -43 -67 -127 -67 -106 0 22 -18 12 -28 -15 -6 -16 -11 -21
-11 -13 -1 9 6 25 14 38 14 19 14 21 1 16 -9 -3 -25 -22 -37 -41 -13 -20 -28
-33 -38 -31 -20 4 -97 117 -110 161 l-9 32 -1 -40 c0 -22 6 -62 14 -88 8 -26
10 -45 5 -42 -6 4 -10 12 -10 20 0 8 -5 17 -11 21 -8 4 -9 0 -4 -15 19 -60
-39 20 -71 98 l-24 56 0 -50 c0 -27 -4 -57 -10 -65 -7 -12 -12 -12 -29 4 -11
10 -27 33 -36 52 -9 19 -20 32 -25 29 -4 -3 -13 10 -20 28 -11 31 -12 31 -21
9 -4 -12 -6 -30 -3 -40 5 -14 3 -14 -11 3 -9 11 -20 19 -25 18 -10 -3 -96 109
-113 145 -17 37 -27 25 -11 -14 25 -59 8 -51 -26 12 -17 33 -28 48 -24 34 3
-14 25 -59 50 -100 l44 -75 -36 40 c-40 44 -108 174 -161 305 l-34 85 5 -70
c3 -38 8 -81 11 -95 16 -63 -29 39 -65 149 -37 110 -39 114 -40 71 l-2 -45
-15 60 c-8 33 -18 85 -22 115 -5 30 -9 43 -10 28 0 -15 -5 -29 -10 -32 -13 -9
-20 57 -16 147 3 65 2 74 -5 42 -5 -22 -9 -56 -9 -74 -1 -21 -5 -31 -10 -25
-12 13 -31 96 -31 136 0 22 -3 28 -9 20 -14 -24 -21 13 -21 118 0 54 -4 101
-9 104 -5 3 -14 -15 -21 -39 -12 -44 -30 -69 -30 -43 0 31 22 234 27 248 7 20
42 -56 43 -93z m-1825 26 c0 -26 80 -81 143 -99 110 -32 269 2 344 73 25 24
27 24 36 6 38 -70 -186 -185 -328 -169 -57 7 -168 51 -157 63 4 3 1 13 -6 22
-16 19 -57 114 -57 132 0 10 3 10 12 1 7 -7 13 -20 13 -29z m1455 -15 l48 -53
-35 -36 -35 -37 26 -90 c32 -107 42 -243 31 -414 -8 -130 -25 -160 -25 -45 0
85 -11 229 -17 223 -2 -2 -10 -87 -18 -189 -16 -219 -25 -256 -69 -305 l-33
-36 -27 29 c-15 16 -32 39 -39 51 -52 95 -255 389 -264 381 -1 -2 11 -39 28
-83 16 -43 41 -110 56 -149 33 -90 98 -245 132 -315 34 -71 36 -78 23 -65 -6
6 -24 35 -40 66 -59 113 -107 196 -169 296 -34 56 -74 125 -87 155 l-24 53 5
-45 c13 -134 39 -265 69 -355 19 -55 52 -152 74 -215 21 -63 46 -132 55 -152
8 -21 12 -38 8 -38 -4 0 -36 30 -72 68 -224 230 -523 492 -614 539 -89 45
-123 54 -144 38 -10 -8 -27 -15 -38 -15 -11 0 19 -21 68 -47 128 -66 261 -195
353 -342 38 -61 80 -130 93 -153 l25 -43 -56 50 c-31 28 -112 99 -180 159 -67
59 -130 116 -138 125 -8 9 -23 20 -32 23 -9 4 -45 42 -80 85 -35 43 -75 91
-90 106 -16 16 -28 33 -28 38 0 17 41 91 102 186 l59 91 122 55 c67 30 158 68
202 86 44 17 193 76 332 131 l252 99 67 71 c36 38 68 70 71 70 2 0 26 -24 53
-52z m2406 -61 c7 -56 10 -104 9 -105 -2 -2 -12 25 -23 60 l-20 63 -6 -90 c-4
-49 -10 -110 -13 -135 l-7 -45 -6 35 c-4 28 -7 17 -13 -50 -4 -47 -14 -107
-21 -135 l-14 -50 -6 85 c-7 83 6 195 35 303 19 71 61 178 68 172 3 -4 11 -52
17 -108z m436 23 c75 -69 79 -71 254 -136 492 -181 562 -209 686 -266 l86 -40
60 -97 c102 -165 102 -159 2 -226 -39 -25 -70 -48 -70 -51 0 -3 6 -2 13 2 6 4
-44 -50 -113 -120 -79 -79 -130 -124 -140 -121 -18 5 -54 -27 -134 -118 -32
-38 -61 -66 -63 -63 -3 2 11 32 31 65 19 34 33 61 30 61 -9 0 78 114 125 164
74 78 193 162 264 185 56 19 109 55 96 64 -2 2 -17 11 -32 21 -16 10 -46 33
-68 53 -29 26 -39 31 -39 19 0 -10 5 -14 11 -10 7 4 10 2 7 -6 -2 -7 -18 -18
-36 -24 -44 -15 -311 -246 -530 -457 -138 -134 -209 -196 -216 -188 -2 2 9 42
24 89 89 274 112 352 125 429 17 108 26 195 19 188 -3 -3 -27 -49 -52 -104
-66 -137 -212 -400 -212 -381 0 3 13 34 29 69 27 59 82 227 145 439 30 102 31
104 -114 -123 -53 -84 -118 -185 -144 -226 l-48 -74 -44 111 c-44 111 -44 114
-54 287 -13 219 -8 300 25 404 l26 82 -47 55 -47 55 29 30 c15 16 31 29 34 29
3 0 40 -31 82 -70z m1535 15 c-4 -8 -12 -15 -19 -14 -10 0 -10 2 0 6 6 2 12
12 12 21 0 8 3 13 6 9 4 -3 4 -13 1 -22z m364 -11 c27 -13 57 -44 44 -44 -5 0
-18 8 -29 18 -12 10 -9 4 7 -16 15 -19 27 -39 27 -45 -1 -7 -6 -6 -13 4 -28
36 -65 50 -129 50 -66 0 -101 -10 -151 -44 -38 -26 -43 -16 -11 22 60 71 174
96 255 55z m676 -26 c-3 -8 -6 -5 -6 6 -1 11 2 17 5 13 3 -3 4 -12 1 -19z
m-1124 -107 c-37 -60 -71 -110 -76 -111 -4 0 0 14 8 30 27 52 127 201 132 197
2 -3 -26 -55 -64 -116z m-2113 105 c0 -2 -8 -10 -17 -17 -16 -13 -17 -12 -4 4
13 16 21 21 21 13z m2538 -40 c27 -26 38 -77 30 -135 -4 -30 -5 -58 -2 -62 2
-4 -16 3 -40 17 -60 34 -198 82 -215 76 -8 -2 -11 0 -8 6 4 5 0 15 -8 22 -22
18 -19 26 21 50 79 49 186 62 222 26z m689 -28 c-3 -8 -6 -5 -6 6 -1 11 2 17
5 13 3 -3 4 -12 1 -19z m-947 -63 c8 5 11 4 7 -2 -8 -12 101 -66 115 -57 7 4
8 2 4 -4 -4 -7 23 -26 74 -52 44 -22 80 -44 80 -49 0 -11 -29 -35 -46 -37 -9
-2 -14 8 -14 29 l-1 32 -14 -25 c-20 -35 -19 -37 17 -49 29 -10 34 -9 50 11
10 13 18 27 18 32 0 5 3 6 6 3 4 -4 -4 -22 -17 -41 -28 -41 -33 -40 -144 5
-74 31 -96 36 -78 18 15 -15 -7 -59 -30 -59 -29 0 -84 27 -95 47 -6 10 -14 17
-19 16 -11 -3 -6 48 6 60 5 5 17 7 26 4 14 -6 14 -9 -2 -34 -17 -28 -17 -28 3
-10 19 16 23 16 34 2 7 -8 19 -15 27 -15 10 0 14 -7 10 -20 -3 -11 -2 -18 3
-15 4 3 10 15 12 28 4 20 -4 28 -49 52 -56 31 -70 50 -29 39 19 -4 27 0 37 18
11 21 11 22 -4 10 -32 -27 -50 15 -26 60 8 15 13 17 19 8 4 -7 13 -9 20 -5z
m461 -127 c-22 -74 -65 -200 -95 -279 -87 -230 -75 -209 -117 -209 -20 0 -51
-3 -69 -6 -32 -7 -32 -7 -17 17 38 59 242 434 284 521 26 54 48 96 50 94 2 -1
-15 -64 -36 -138z m460 86 c-5 -21 -9 -30 -10 -19 -1 24 10 67 15 62 3 -2 0
-22 -5 -43z m-3568 -169 c52 -95 103 -222 93 -232 -2 -2 -12 16 -21 41 -20 53
-128 165 -224 234 -56 40 -61 47 -43 53 11 4 25 24 32 46 6 21 13 44 16 51 7
23 88 -84 147 -193z m-780 176 c-3 -13 6 -29 28 -50 17 -17 36 -31 40 -31 24
0 3 -23 -41 -45 -58 -29 -160 -129 -198 -195 -15 -25 -37 -74 -49 -110 -23
-67 -32 -49 -12 25 31 115 96 244 183 363 49 66 57 73 49 43z m3133 -53 c-18
-29 -43 -77 -56 -105 -12 -29 -27 -50 -32 -47 -9 6 -1 45 11 54 4 3 20 30 35
60 30 58 54 90 67 90 5 0 -6 -24 -25 -52z m-1436 -7 c0 -21 -13 -4 -17 22 -2
17 -1 19 7 7 5 -8 10 -21 10 -29z m-2129 -47 c17 -36 28 -69 25 -72 -5 -4 -66
118 -66 133 0 19 15 -4 41 -61z m3484 20 c-13 -19 -27 -44 -30 -55 -7 -21 -20
-25 -30 -9 -4 6 -29 29 -56 50 l-50 39 48 -5 c26 -4 64 -1 83 4 57 17 61 14
35 -24z m-1366 -11 c0 -10 2 -27 3 -38 5 -37 -14 -205 -23 -205 -10 0 -12 145
-3 214 6 44 22 64 23 29z m2622 -63 c-11 -36 -20 -59 -20 -52 -1 18 33 136 36
126 2 -5 -6 -38 -16 -74z m-999 40 c-2 -17 -8 -33 -13 -36 -18 -11 -7 -144 11
-144 5 0 4 15 -1 32 -17 62 -6 143 16 109 9 -16 148 -97 188 -110 l37 -13 -33
-39 c-17 -22 -42 -42 -54 -45 -13 -3 -21 -10 -18 -14 8 -13 -45 -2 -70 14 -37
24 -30 4 7 -24 36 -26 106 -31 137 -9 9 6 3 -1 -13 -16 -24 -22 -35 -26 -65
-20 -95 17 -165 88 -164 167 1 38 0 40 -6 13 -14 -59 31 -138 99 -172 37 -20
40 -23 19 -23 -34 0 -103 53 -122 93 -30 63 -31 103 -5 160 14 28 30 64 36 80
15 35 20 34 14 -3z m-3177 -20 c10 -11 24 -20 30 -20 7 0 23 -8 35 -18 20 -16
20 -19 6 -47 -9 -17 -16 -24 -16 -17 0 7 5 22 10 33 15 27 -1 24 -36 -7 -16
-14 -41 -32 -56 -40 -27 -14 -28 -14 -18 12 l10 26 -38 -30 c-27 -22 -42 -28
-53 -21 -12 6 -30 -5 -73 -44 -31 -29 -56 -50 -56 -47 0 3 -7 -4 -15 -14 -9
-12 -15 -15 -15 -7 0 11 -3 11 -17 0 -12 -10 -10 -2 8 31 34 63 145 171 209
203 65 32 62 32 85 7z m548 -73 c68 -60 117 -118 117 -139 0 -5 -5 -8 -11 -6
-6 2 -10 8 -10 13 0 6 -15 19 -34 31 -19 11 -32 24 -28 28 4 4 0 4 -9 1 -10
-4 -25 2 -38 15 -25 25 -36 21 -20 -9 20 -38 -16 -24 -51 20 -24 30 -34 37
-40 27 -7 -10 -9 -10 -9 0 0 6 -5 12 -11 12 -7 0 -5 -10 6 -26 24 -37 12 -40
-19 -4 -14 17 -30 29 -35 26 -5 -3 -16 9 -24 27 -16 31 -15 32 6 39 12 3 48 6
80 7 56 1 58 0 130 -62z m719 -724 l3 -753 -29 -10 c-16 -6 -30 -9 -32 -8 -1
2 -3 305 -5 673 l-4 670 25 97 c13 54 28 94 31 90 4 -4 9 -346 11 -759z m2166
714 c15 6 15 5 3 -10 -15 -19 -53 -22 -82 -6 -16 8 -18 13 -9 25 7 7 16 12 20
9 4 -2 16 5 26 16 l19 21 3 -30 c3 -24 7 -30 20 -25z m-4208 -287 c0 -39 4
-60 9 -52 16 26 21 -126 21 -646 l0 -522 -27 6 c-16 4 -44 14 -63 23 l-35 16
-3 680 c-2 374 0 714 4 755 l7 75 43 -135 c33 -101 44 -151 44 -200z m1874
313 c8 -26 11 -132 4 -139 -3 -3 -12 12 -19 33 -10 32 -13 35 -20 18 -4 -11
-8 -43 -8 -71 -1 -64 -11 -114 -22 -114 -5 0 -9 17 -9 37 0 52 -17 31 -30 -37
-10 -54 -58 -210 -65 -210 -2 0 -1 36 2 80 4 51 2 80 -4 80 -6 0 -25 -41 -43
-92 -41 -119 -101 -236 -135 -268 -23 -21 -16 -2 39 106 37 72 76 163 86 202
11 40 24 80 29 90 10 16 10 16 11 -1 0 -15 4 -16 20 -7 13 7 22 26 27 53 4 27
16 51 34 68 15 14 31 39 34 55 9 40 49 134 57 134 4 0 9 -8 12 -17z m3030
-127 c-15 -48 -29 -85 -31 -82 -2 2 9 42 24 89 15 48 29 85 31 83 2 -3 -9 -43
-24 -90z m-1019 -11 c20 -70 64 -121 119 -137 l43 -13 -14 -32 c-7 -18 -20
-33 -27 -33 -51 0 -173 75 -196 120 l-18 35 35 58 c20 31 37 57 39 57 1 0 10
-25 19 -55z m-2767 14 c161 -19 252 -72 309 -175 53 -97 47 -176 -18 -209 -27
-15 -33 -14 -76 5 -25 11 -65 38 -88 59 -23 21 -54 46 -69 56 -46 30 -21 28
43 -4 43 -22 61 -27 61 -18 0 47 -135 97 -281 104 -123 7 -217 -11 -314 -57
-60 -28 -60 -28 -20 -23 38 4 39 3 21 -11 -11 -9 -25 -17 -30 -17 -6 -1 3 -4
19 -8 29 -7 28 -8 -42 -44 -91 -47 -117 -47 -143 -4 -41 66 -18 150 63 235 56
58 117 88 218 106 137 25 182 26 347 5z m3743 -126 c-12 -20 -14 -14 -5 12 4
9 9 14 11 11 3 -2 0 -13 -6 -23z m-28 -83 c-9 -22 -18 -38 -20 -36 -5 5 24 76
31 76 2 0 -3 -18 -11 -40z m-963 10 c16 -12 54 -32 84 -46 61 -28 72 -40 29
-30 -20 5 -24 4 -13 -3 8 -6 12 -13 8 -16 -10 -10 -104 42 -127 71 -36 46 -27
57 19 24z m-2763 -16 c-3 -3 -12 -4 -19 -1 -8 3 -5 6 6 6 11 1 17 -2 13 -5z
m-317 -24 c-34 -11 -60 -11 -35 0 11 5 29 8 40 8 16 0 15 -2 -5 -8z m820 -40
c0 -5 -5 -10 -11 -10 -5 0 -7 5 -4 10 3 6 8 10 11 10 2 0 4 -4 4 -10z m3193
-5 c-3 -9 -8 -14 -10 -11 -3 3 -2 9 2 15 9 16 15 13 8 -4z m-6773 -22 c-19
-15 -60 -53 -92 -85 -31 -32 -58 -58 -61 -58 -12 0 -68 114 -63 127 5 12 17
14 59 9 39 -5 66 -2 107 13 76 27 91 25 50 -6z m3530 -111 c-40 -68 -60 -94
-60 -75 0 5 16 35 35 67 19 32 35 63 35 68 0 5 6 15 13 22 29 32 16 -14 -23
-82z m-3782 53 c-3 -3 -9 2 -12 12 -6 14 -5 15 5 6 7 -7 10 -15 7 -18z m599
-92 c210 -254 505 -525 728 -669 261 -169 478 -279 736 -374 207 -75 536 -152
754 -176 277 -29 584 -25 830 12 582 88 1072 286 1503 608 209 156 464 399
640 611 27 33 61 71 76 84 l26 24 34 -29 c83 -71 430 -388 524 -479 83 -80
102 -104 98 -121 -9 -34 -120 -193 -236 -338 -110 -138 -317 -353 -435 -452
-38 -32 -72 -61 -75 -64 -52 -52 -316 -243 -454 -329 -484 -302 -1005 -494
-1543 -571 -261 -37 -359 -43 -638 -44 l-280 0 -270 42 c-413 65 -569 104
-882 220 -192 72 -430 184 -628 295 -90 51 -117 69 -273 182 -45 33 -105 76
-133 95 -85 58 -145 112 -349 316 -217 216 -239 240 -353 392 -128 170 -179
250 -175 274 3 23 141 150 458 423 91 78 174 152 184 164 11 11 23 21 27 21 4
0 52 -53 106 -117z m6374 50 c-15 -28 -19 -32 -18 -15 1 12 4 22 8 22 4 0 11
9 14 21 4 11 9 18 12 16 2 -3 -5 -22 -16 -44z m-2923 -535 l-3 -503 -22 -3
-23 -3 0 482 c0 428 2 488 17 537 17 54 17 54 25 24 5 -17 7 -257 6 -534z
m-1708 513 c9 -31 -3 -54 -14 -25 -7 19 -8 69 -1 62 3 -3 10 -19 15 -37z
m4593 -66 c-3 -9 -8 -14 -10 -11 -3 3 -2 9 2 15 9 16 15 13 8 -4z m-3253 -50
c-7 -9 -15 -13 -17 -11 -7 7 7 26 19 26 6 0 6 -6 -2 -15z m-39 -18 c-10 -9
-11 -8 -5 6 3 10 9 15 12 12 3 -3 0 -11 -7 -18z m3252 -17 c-10 -17 -19 -26
-21 -20 -4 10 25 50 35 50 2 0 -4 -14 -14 -30z m-1453 13 c0 -5 -13 -17 -28
-28 -27 -19 -27 -19 -12 0 22 29 40 42 40 28z m-2982 -58 c-3 -3 -9 2 -12 12
-6 14 -5 15 5 6 7 -7 10 -15 7 -18z m4412 -4 c0 -17 -136 -239 -144 -234 -5 3
-6 1 -2 -5 4 -7 2 -20 -3 -29 -9 -16 -10 -14 -11 9 0 15 -4 38 -9 51 -9 22 -7
24 12 19 12 -3 16 -7 9 -10 -16 -5 -15 -22 1 -22 18 0 41 45 32 62 -5 7 -5 10
0 6 12 -11 35 11 35 32 0 10 6 21 13 23 9 4 8 8 -3 16 -13 9 -11 11 7 11 15 0
24 9 32 31 6 17 9 35 6 38 -2 4 2 8 10 8 8 0 15 -3 15 -6z m-7262 -139 c-4
-14 14 -52 23 -52 6 0 7 6 3 13 -4 6 4 2 18 -11 13 -12 28 -19 33 -15 4 5 4 1
-1 -7 -4 -8 -11 -32 -14 -53 l-5 -39 -36 64 c-43 75 -57 120 -34 112 8 -3 14
-9 13 -12z m3055 -73 c26 -24 49 -53 52 -70 4 -16 21 -40 38 -55 20 -16 24
-22 10 -14 -22 10 -23 9 -24 -27 -1 -34 -2 -35 -9 -13 -4 14 -8 -91 -9 -238
l-1 -264 -42 7 c-86 13 -78 -26 -78 366 0 192 4 349 8 349 5 0 29 -18 55 -41z
m157 -179 c0 -5 3 -15 6 -24 5 -13 -1 -16 -25 -16 -34 0 -39 11 -16 33 8 8 11
18 7 21 -3 4 1 4 11 0 9 -3 17 -10 17 -14z m141 -80 l44 -20 -37 0 c-26 0 -38
4 -38 14 0 8 -6 17 -12 19 -7 3 -10 6 -7 6 4 1 26 -8 50 -19z m302 -107 c-7
-2 -19 -2 -25 0 -7 3 -2 5 12 5 14 0 19 -2 13 -5z m2857 -447 c0 -2 -8 -10
-17 -17 -16 -13 -17 -12 -4 4 13 16 21 21 21 13z m-960 -721 c0 -2 -13 -11
-30 -20 -38 -19 -40 -11 -2 9 31 17 32 18 32 11z"/>
<path d="M4572 9080 c0 -14 2 -19 5 -12 2 6 2 18 0 25 -3 6 -5 1 -5 -13z"/>
<path d="M4980 5589 c-29 -4 2 -6 85 -7 72 -1 136 2 144 7 16 10 -159 10 -229
0z"/>
<path d="M4080 5526 c0 -4 7 -20 15 -35 15 -29 34 -42 63 -40 10 1 6 4 -8 8
-14 4 -35 22 -47 40 -13 19 -23 31 -23 27z"/>
<path d="M4120 5522 c0 -13 27 -35 39 -30 5 1 -2 11 -15 21 -13 10 -24 14 -24
9z"/>
<path d="M4788 5469 c-30 -19 339 -31 477 -15 72 8 77 10 45 17 -42 10 -506 8
-522 -2z"/>
<path d="M4218 5407 c-16 -6 -28 -17 -28 -25 0 -10 8 -7 30 8 17 12 30 23 30
26 0 2 -1 4 -2 3 -2 -1 -15 -6 -30 -12z"/>
<path d="M4265 5343 c-26 -7 -60 -31 -60 -42 0 -5 -12 -22 -26 -38 -34 -38
-53 -110 -52 -202 0 -70 14 -175 24 -186 3 -2 6 49 7 113 4 174 38 276 114
336 33 26 32 28 -7 19z"/>
<path d="M4930 5330 c0 -21 43 -30 139 -30 99 0 151 10 151 30 0 6 -53 10
-145 10 -86 0 -145 -4 -145 -10z"/>
<path d="M6028 4496 c-15 -22 -39 -58 -54 -79 -27 -38 -27 -54 0 -44 14 6 93
154 85 161 -2 2 -16 -15 -31 -38z"/>
<path d="M4126 4457 c3 -10 9 -15 12 -12 3 3 0 11 -7 18 -10 9 -11 8 -5 -6z"/>
<path d="M1800 6614 c0 -14 -9 -37 -20 -51 -11 -14 -20 -40 -19 -57 l1 -31 12
35 c12 32 17 35 47 32 19 -1 36 -7 38 -13 4 -12 31 37 31 55 0 20 -44 56 -68
56 -17 0 -22 -6 -22 -26z m61 -4 c23 -13 25 -33 3 -50 -13 -11 -19 -10 -36 7
-12 13 -18 28 -15 37 7 19 21 20 48 6z"/>
<path d="M1960 6295 c0 -16 56 -45 87 -45 15 0 15 2 3 15 -8 8 -32 21 -52 30
-35 14 -38 14 -38 0z"/>
<path d="M3247 6735 c-4 -9 -1 -18 9 -22 22 -8 30 5 12 23 -14 14 -16 14 -21
-1z"/>
<path d="M7237 6994 c69 -52 72 -56 38 -48 l-30 7 20 -23 20 -23 -25 8 c-14 4
-41 14 -60 22 -39 16 -34 10 30 -37 44 -32 41 -33 -22 -13 -16 5 -17 1 -11
-28 5 -27 4 -31 -10 -26 -11 4 -17 1 -17 -9 0 -8 -4 -12 -10 -9 -15 9 -12 -11
4 -24 7 -6 22 -9 32 -5 13 4 15 3 6 -3 -10 -7 -8 -14 8 -28 18 -16 25 -14 21
8 0 4 3 7 8 7 5 0 20 21 33 48 13 26 27 50 31 53 4 3 7 10 6 15 -5 28 3 54 16
54 33 0 11 22 -55 55 -38 19 -72 35 -76 35 -3 0 16 -16 43 -36z m23 -175 c0
-5 -4 -9 -10 -9 -5 0 -10 7 -10 16 0 8 5 12 10 9 6 -3 10 -10 10 -16z"/>
<path d="M7880 7026 c0 -14 29 -31 38 -21 6 6 -18 35 -29 35 -5 0 -9 -6 -9
-14z"/>
<path d="M8235 6730 c3 -5 8 -10 11 -10 2 0 4 5 4 10 0 6 -5 10 -11 10 -5 0
-7 -4 -4 -10z"/>
<path d="M8027 6653 c-8 -14 -29 -114 -26 -118 2 -2 22 -6 44 -9 22 -4 54 -9
71 -12 31 -6 31 -5 42 52 7 31 10 59 7 62 -2 3 -27 7 -55 10 -28 2 -53 9 -56
13 -6 11 -21 12 -27 2z m96 -60 c9 -2 17 -14 17 -25 0 -19 -4 -20 -57 -14 -31
4 -58 8 -60 9 -1 2 0 13 4 25 5 20 10 22 42 16 20 -3 44 -8 54 -11z"/>
<path d="M7928 6288 c-21 -12 -38 -28 -38 -34 0 -10 9 -9 38 3 46 19 63 33 56
44 -8 13 -14 11 -56 -13z"/>
<path d="M2111 6654 c0 -11 3 -14 6 -6 3 7 2 16 -1 19 -3 4 -6 -2 -5 -13z"/>
<path d="M1540 6316 c0 -2 7 -7 16 -10 8 -3 12 -2 9 4 -6 10 -25 14 -25 6z"/>
<path d="M7463 6015 c0 -22 2 -30 4 -17 2 12 2 30 0 40 -3 9 -5 -1 -4 -23z"/>
<path d="M7350 5625 c-7 -9 -10 -18 -7 -21 3 -3 10 4 17 15 13 25 8 27 -10 6z"/>
<path d="M7590 5446 c0 -8 -10 -22 -22 -30 -22 -16 -22 -16 -2 -16 13 0 25 10
32 25 15 32 15 35 2 35 -5 0 -10 -6 -10 -14z"/>
<path d="M7351 5173 c-52 -90 -65 -127 -36 -103 8 7 15 19 15 26 0 8 5 14 10
14 6 0 10 6 10 14 0 8 8 17 17 20 14 6 15 9 4 15 -11 7 -9 11 8 20 12 7 19 16
16 21 -3 5 -1 19 5 31 7 11 10 23 7 25 -3 3 -28 -35 -56 -83z"/>
<path d="M7425 5221 c-3 -11 -28 -53 -55 -95 -52 -78 -56 -86 -41 -86 13 0 66
74 91 127 11 23 25 45 30 48 15 9 12 25 -4 25 -8 0 -17 -9 -21 -19z"/>
<path d="M7454 5157 c-36 -48 -74 -120 -74 -140 0 -8 15 -22 34 -32 44 -24 54
-16 103 78 51 97 54 68 3 -33 -22 -44 -38 -85 -35 -90 10 -17 35 -11 35 8 0
10 20 50 45 90 50 81 54 97 25 112 -29 15 -53 5 -67 -27 -7 -16 -22 -46 -35
-68 -13 -22 -23 -41 -23 -42 0 -1 -12 -4 -28 -8 -45 -12 -34 28 28 101 30 36
55 72 55 80 0 28 -36 13 -66 -29z m36 -7 c0 -5 -4 -10 -10 -10 -5 0 -10 5 -10
10 0 6 5 10 10 10 6 0 10 -4 10 -10z m66 -98 c-18 -16 -18 -16 -6 6 6 13 14
21 18 18 3 -4 -2 -14 -12 -24z"/>
<path d="M7622 5084 c-11 -22 -36 -61 -56 -89 -20 -27 -36 -59 -36 -70 1 -18
3 -17 25 8 46 52 109 167 97 179 -7 7 -16 -1 -30 -28z"/>
<path d="M7016 4544 c-20 -19 -20 -25 -2 -18 8 3 17 12 20 20 7 18 1 18 -18
-2z"/>
<path d="M1943 5879 c-9 -9 -6 -17 13 -31 13 -11 22 -23 19 -27 -2 -5 4 -16
15 -26 11 -10 20 -24 20 -32 0 -7 7 -16 15 -19 11 -5 12 -10 3 -24 -7 -10 -16
-16 -22 -13 -5 3 -6 1 -2 -5 4 -6 14 -9 24 -6 9 3 23 8 31 10 12 4 11 7 -1 22
-8 9 -30 50 -48 90 -34 72 -46 82 -67 61z"/>
<path d="M1965 5783 c15 -32 25 -42 25 -24 0 5 -9 19 -20 32 l-21 24 16 -32z"/>
<path d="M2040 5639 c-49 -32 -41 -37 20 -13 22 9 40 22 40 30 0 19 -8 17 -60
-17z"/>
<path d="M2650 6039 c0 -5 5 -7 10 -4 6 3 10 8 10 11 0 2 -4 4 -10 4 -5 0 -10
-5 -10 -11z"/>
<path d="M2850 5749 c0 -5 5 -7 10 -4 6 3 10 8 10 11 0 2 -4 4 -10 4 -5 0 -10
-5 -10 -11z"/>
<path d="M2888 5734 c-7 -6 37 -113 53 -128 23 -25 18 9 -11 68 -35 71 -34 69
-42 60z"/>
<path d="M2834 5709 c-2 -4 7 -31 21 -61 14 -29 25 -59 25 -65 0 -7 4 -13 9
-13 22 0 20 22 -4 71 -15 28 -25 53 -22 55 2 2 16 -23 32 -56 40 -83 50 -76
13 9 -24 53 -36 69 -50 68 -11 -1 -21 -4 -24 -8z"/>
<path d="M2790 5685 c0 -7 6 -18 13 -22 8 -4 19 -29 27 -55 7 -27 17 -48 21
-48 14 0 11 20 -13 82 -21 53 -48 78 -48 43z"/>
<path d="M2756 5665 c4 -8 10 -15 15 -15 5 0 9 7 9 15 0 8 -7 15 -15 15 -9 0
-12 -6 -9 -15z"/>
<path d="M2720 5655 c0 -8 7 -15 15 -15 9 0 12 6 9 15 -4 8 -10 15 -15 15 -5
0 -9 -7 -9 -15z"/>
<path d="M2680 5651 c0 -6 5 -13 10 -16 6 -3 10 1 10 9 0 9 -4 16 -10 16 -5 0
-10 -4 -10 -9z"/>
<path d="M2660 5634 c0 -8 5 -12 10 -9 6 4 8 11 5 16 -9 14 -15 11 -15 -7z"/>
<path d="M2620 5631 c0 -5 5 -13 10 -16 6 -3 10 -2 10 4 0 5 -4 13 -10 16 -5
3 -10 2 -10 -4z"/>
<path d="M2775 5623 c4 -10 12 -30 17 -45 11 -30 28 -38 28 -13 0 23 -29 75
-41 75 -7 0 -8 -7 -4 -17z"/>
<path d="M2590 5621 c0 -5 5 -13 10 -16 6 -3 10 -2 10 4 0 5 -4 13 -10 16 -5
3 -10 2 -10 -4z"/>
<path d="M2740 5610 c0 -17 31 -72 37 -67 8 8 -17 77 -28 77 -5 0 -9 -5 -9
-10z"/>
<path d="M2680 5590 c0 -6 7 -27 15 -46 20 -49 37 -34 18 16 -15 37 -33 54
-33 30z"/>
<path d="M2710 5596 c0 -15 34 -78 37 -69 4 11 -23 73 -32 73 -3 0 -5 -2 -5
-4z"/>
<path d="M2657 5540 c9 -22 18 -38 20 -36 7 6 -20 76 -28 76 -4 0 0 -18 8 -40z"/>
<path d="M2610 5560 c1 -8 7 -28 15 -45 l15 -30 -6 35 c-6 36 -24 66 -24 40z"/>
<path d="M8657 5392 c-18 -20 -24 -92 -7 -92 5 0 12 16 16 35 3 19 12 39 20
46 14 11 10 29 -5 29 -4 0 -15 -8 -24 -18z"/>
<path d="M8712 5339 c-13 -5 -22 -15 -20 -21 5 -16 48 -24 48 -10 0 6 3 17 6
26 7 18 0 19 -34 5z"/>
<path d="M1951 5244 c0 -11 3 -14 6 -6 3 7 2 16 -1 19 -3 4 -6 -2 -5 -13z"/>
<path d="M3333 5098 c-13 -6 -23 -15 -23 -19 0 -5 -7 -6 -16 -2 -20 7 -65 -17
-57 -30 4 -6 0 -8 -9 -5 -8 4 -15 1 -15 -6 0 -9 20 -5 64 11 102 37 103 36
116 -66 1 -8 8 -16 16 -19 18 -6 10 41 -18 104 -21 47 -24 48 -58 32z"/>
<path d="M3316 5007 c-17 -12 -17 -16 4 -82 48 -156 58 -175 108 -190 22 -6
23 -5 17 17 -4 12 -18 44 -31 70 -13 26 -24 49 -24 52 0 2 13 9 29 14 23 8 28
15 24 31 -8 31 -22 35 -43 16 -18 -17 -20 -16 -29 6 -5 13 -12 36 -15 52 -7
30 -14 33 -40 14z"/>
<path d="M3224 4966 c-3 -7 2 -31 11 -51 8 -21 13 -40 11 -42 -6 -7 -46 39
-46 53 0 15 -25 25 -45 18 -19 -8 -20 -5 11 -72 14 -31 37 -81 50 -109 20 -44
28 -53 49 -53 25 0 25 0 10 31 -9 17 -14 33 -11 36 10 10 36 -19 36 -38 0 -13
7 -19 24 -19 14 0 27 4 31 9 3 6 -10 43 -28 83 -19 40 -42 94 -52 121 -17 46
-40 61 -51 33z m36 -167 c0 -6 -4 -7 -10 -4 -5 3 -10 11 -10 16 0 6 5 7 10 4
6 -3 10 -11 10 -16z"/>
<path d="M3037 4892 c-15 -9 -27 -23 -27 -32 0 -8 14 -58 31 -112 26 -81 35
-98 51 -98 16 0 19 5 14 20 -3 11 -8 28 -11 38 -3 9 -1 24 5 32 9 13 13 12 25
-5 39 -55 43 -58 59 -52 16 7 16 11 -8 51 -14 24 -40 71 -58 105 -17 33 -37
62 -43 65 -6 2 -23 -3 -38 -12z m32 -57 c16 -31 21 -49 14 -56 -7 -7 -17 6
-32 40 -23 55 -25 61 -13 61 4 0 18 -20 31 -45z"/>
<path d="M2892 4827 c-38 -17 -36 -47 6 -139 22 -47 45 -89 52 -93 16 -10 60
14 60 33 0 9 6 12 15 8 29 -11 28 24 0 50 -35 32 -59 26 -45 -12 22 -56 -11
-42 -41 19 -43 84 -43 136 0 81 27 -34 46 -23 26 16 -20 38 -44 50 -73 37z"/>
<path d="M2678 4813 c-25 -6 -22 -24 8 -68 14 -21 37 -64 50 -94 60 -135 68
-151 86 -157 11 -3 22 -4 25 -1 5 6 -17 77 -29 92 -10 12 -10 25 0 25 5 0 17
-18 27 -40 24 -54 30 -56 48 -20 9 16 12 32 7 35 -4 3 -11 17 -15 32 -3 15
-12 32 -19 37 -6 6 -18 29 -25 51 -26 77 -71 97 -115 51 l-22 -25 -12 31 c-8
23 -9 35 -1 45 6 7 10 12 8 12 -2 -1 -12 -3 -21 -6z m129 -119 c15 -31 15 -36
3 -44 -23 -15 -30 -12 -30 14 0 14 -4 28 -10 31 -16 10 -12 35 5 35 9 0 23
-16 32 -36z"/>
<path d="M3404 4681 c8 -12 46 -21 46 -11 0 8 -24 20 -41 20 -6 0 -8 -4 -5 -9z"/>
<path d="M3170 4625 c0 -5 5 -17 10 -25 5 -8 10 -10 10 -5 0 6 -5 17 -10 25
-5 8 -10 11 -10 5z"/>
<path d="M3210 4620 c0 -6 7 -10 15 -10 8 0 15 2 15 4 0 2 -7 6 -15 10 -8 3
-15 1 -15 -4z"/>
<path d="M3352 4604 c-7 -8 -8 -14 -3 -14 10 0 25 19 20 25 -2 1 -10 -3 -17
-11z"/>
<path d="M3310 4599 c0 -5 5 -7 10 -4 6 3 10 8 10 11 0 2 -4 4 -10 4 -5 0 -10
-5 -10 -11z"/>
<path d="M3422 4522 c-72 -63 -49 -95 35 -47 45 27 49 35 33 66 -14 25 -18 24
-68 -19z"/>
<path d="M3172 4459 c-24 -7 -37 -19 -48 -44 -15 -36 -19 -75 -7 -75 24 0 203
78 203 88 0 7 -4 11 -8 8 -5 -3 -21 4 -38 15 -32 21 -52 22 -102 8z m73 -49
c-3 -5 -10 -10 -16 -10 -5 0 -9 5 -9 10 0 6 7 10 16 10 8 0 12 -4 9 -10z m-75
-14 c0 -3 -4 -8 -10 -11 -5 -3 -10 -1 -10 4 0 6 5 11 10 11 6 0 10 -2 10 -4z"/>
<path d="M2913 4333 c-10 -3 -9 -12 3 -36 9 -18 18 -33 19 -35 2 -2 96 37 104
44 2 2 -2 10 -9 19 -12 14 -88 20 -117 8z"/>
<path d="M1589 5088 c-1 -2 -2 -18 -3 -35 -2 -23 2 -33 12 -33 11 0 12 -3 3
-14 -9 -11 -9 -15 0 -18 7 -2 12 -20 11 -41 -1 -20 0 -37 3 -37 6 0 35 62 35
76 0 32 -52 118 -61 102z"/>
<path d="M1704 4928 c2 -15 35 -76 36 -67 0 4 -7 23 -15 43 -15 36 -25 47 -21
24z"/>
<path d="M2260 4929 c0 -4 7 -22 15 -40 10 -25 14 -29 15 -13 0 17 -29 70 -30
53z"/>
<path d="M2085 4907 c-17 -13 -17 -14 4 -20 16 -4 21 -1 21 14 0 23 -1 23 -25
6z"/>
<path d="M2146 4895 c-22 -21 -25 -28 -16 -45 14 -26 23 -26 15 1 -5 16 0 28
20 45 16 13 24 24 18 24 -6 0 -22 -11 -37 -25z"/>
<path d="M2210 4865 c0 -5 5 -17 10 -25 5 -8 10 -10 10 -5 0 6 -5 17 -10 25
-5 8 -10 11 -10 5z"/>
<path d="M2073 4844 c-8 -21 13 -64 32 -64 19 0 20 19 0 26 -18 7 -20 31 -3
36 7 3 5 7 -5 11 -11 4 -20 1 -24 -9z"/>
<path d="M2256 4825 c-3 -8 -1 -15 4 -15 6 0 10 7 10 15 0 8 -2 15 -4 15 -2 0
-6 -7 -10 -15z"/>
<path d="M2218 4793 c7 -3 16 -2 19 1 4 3 -2 6 -13 5 -11 0 -14 -3 -6 -6z"/>
<path d="M2487 4794 c-4 -4 8 -14 25 -23 41 -21 51 -46 13 -31 -34 13 -38 13
-29 -1 5 -9 -2 -10 -22 -6 -27 6 -27 6 -6 -5 41 -21 23 -58 -29 -58 -23 0 -24
12 -5 73 16 52 20 52 -76 5 -74 -36 -76 -45 -1 -13 31 14 57 24 59 22 2 -1 -2
-22 -8 -45 -9 -36 -15 -42 -44 -48 -19 -3 -52 -19 -74 -35 -35 -25 -40 -34
-40 -68 0 -22 5 -43 11 -46 7 -5 8 5 4 29 -12 62 36 93 163 106 86 9 101 18
84 55 -12 25 -6 30 22 19 10 -4 16 -18 16 -41 0 -31 -4 -36 -52 -58 -29 -14
-47 -25 -40 -25 17 0 95 40 104 54 4 6 6 22 4 36 -3 14 -5 37 -5 52 -1 20 -9
32 -31 43 -33 17 -34 17 -43 9z"/>
<path d="M2165 4720 c-13 -6 -15 -9 -5 -9 8 0 22 4 30 9 18 12 2 12 -25 0z"/>
<path d="M2250 4690 c-9 -6 -10 -10 -3 -10 6 0 15 5 18 10 8 12 4 12 -15 0z"/>
<path d="M2220 4636 c0 -2 8 -10 18 -17 15 -13 16 -12 3 4 -13 16 -21 21 -21
13z"/>
<path d="M2151 4605 c0 -19 10 -43 30 -65 23 -27 26 -29 13 -7 -9 15 -22 44
-30 65 -13 37 -13 37 -13 7z"/>
<path d="M2583 4593 c-7 -2 -13 -9 -13 -14 0 -4 7 -6 15 -3 8 4 23 0 32 -7 15
-13 15 -12 4 9 -12 22 -16 24 -38 15z"/>
<path d="M2511 4550 c0 -8 4 -22 9 -30 12 -18 12 -2 0 25 -6 13 -9 15 -9 5z"/>
<path d="M2590 4516 c0 -16 6 -26 14 -26 9 0 12 7 9 20 -8 31 -23 34 -23 6z"/>
<path d="M2437 4969 c5 -24 5 -24 -11 -4 -17 20 -17 20 -7 -1 5 -11 18 -27 27
-35 16 -13 17 -12 10 16 -4 17 -11 34 -16 39 -5 5 -6 -1 -3 -15z"/>
<path d="M1994 4324 c-18 -14 -18 -15 4 -4 19 10 28 8 45 -7 l22 -18 -19 23
c-23 26 -26 27 -52 6z"/>
<path d="M1980 4254 c-23 -14 -23 -14 -3 -9 17 5 29 -1 48 -22 30 -34 175
-317 175 -341 -1 -9 -14 9 -31 41 -16 31 -31 57 -34 57 -7 0 13 -49 30 -73 19
-27 19 -47 0 -47 -8 0 -15 -4 -15 -8 0 -5 16 -6 35 -3 20 3 35 11 34 16 -8 45
-145 320 -179 358 -16 19 -27 37 -23 41 12 11 -12 5 -37 -10z"/>
<path d="M1656 4145 c-9 -26 -7 -32 5 -12 6 10 9 21 6 23 -2 3 -7 -2 -11 -11z"/>
<path d="M1902 4113 c-6 -3 -9 -10 -5 -16 5 -8 2 -8 -8 0 -14 11 -16 6 -15
-36 1 -57 2 -59 45 -71 24 -6 31 -5 31 5 0 7 7 15 15 19 8 3 15 16 15 29 0 28
-34 72 -49 63 -5 -3 -11 -2 -13 2 -1 5 -9 7 -16 5z m18 -67 c0 -9 -30 -14 -35
-6 -4 6 3 10 14 10 12 0 21 -2 21 -4z"/>
<path d="M1602 4102 c-10 -7 0 -37 41 -128 29 -65 61 -132 71 -149 33 -58 7
14 -50 138 -30 64 -54 121 -54 126 0 5 8 12 18 14 12 3 13 5 2 6 -8 0 -21 -3
-28 -7z"/>
<path d="M1702 4080 c0 -14 2 -19 5 -12 2 6 2 18 0 25 -3 6 -5 1 -5 -13z"/>
<path d="M1720 4025 c0 -5 5 -17 10 -25 5 -8 10 -10 10 -5 0 6 -5 17 -10 25
-5 8 -10 11 -10 5z"/>
<path d="M1741 3975 c0 -5 6 -21 14 -35 8 -14 14 -20 14 -15 0 6 -6 21 -14 35
-8 14 -14 21 -14 15z"/>
<path d="M2100 3969 c0 -10 40 -99 46 -99 2 0 -2 16 -10 35 -17 40 -35 73 -36
64z"/>
<path d="M2076 3937 c3 -10 9 -15 12 -12 3 3 0 11 -7 18 -10 9 -11 8 -5 -6z"/>
<path d="M2040 3935 c0 -5 5 -17 10 -25 5 -8 10 -10 10 -5 0 6 -5 17 -10 25
-5 8 -10 11 -10 5z"/>
<path d="M1970 3914 c0 -6 7 -19 16 -30 14 -18 14 -18 3 6 -14 31 -19 36 -19
24z"/>
<path d="M2090 3901 c0 -6 4 -13 10 -16 6 -3 7 1 4 9 -7 18 -14 21 -14 7z"/>
<path d="M1915 3870 c9 -16 18 -30 21 -30 2 0 -2 14 -11 30 -9 17 -18 30 -21
30 -2 0 2 -13 11 -30z"/>
<path d="M1886 3839 c14 -28 27 -49 29 -47 7 6 -38 98 -47 98 -5 0 3 -23 18
-51z"/>
<path d="M1812 3848 c-13 -16 11 -78 29 -78 8 0 6 7 -4 18 -22 24 -23 66 -1
58 8 -3 12 -2 9 4 -8 14 -20 13 -33 -2z"/>
<path d="M1996 3797 c3 -10 9 -15 12 -12 3 3 0 11 -7 18 -10 9 -11 8 -5 -6z"/>
<path d="M1736 3777 c3 -10 9 -15 12 -12 3 3 0 11 -7 18 -10 9 -11 8 -5 -6z"/>
<path d="M1923 3773 c8 -12 -20 -26 -34 -17 -5 3 -9 -2 -9 -10 0 -12 5 -13 30
-5 32 11 38 23 18 35 -6 4 -8 3 -5 -3z"/>
<path d="M1960 3769 c0 -5 5 -7 10 -4 6 3 10 8 10 11 0 2 -4 4 -10 4 -5 0 -10
-5 -10 -11z"/>
<path d="M2170 3771 c0 -6 5 -13 10 -16 6 -3 10 1 10 9 0 9 -4 16 -10 16 -5 0
-10 -4 -10 -9z"/>
<path d="M1830 3740 c0 -5 9 -14 20 -20 22 -12 27 -1 8 18 -14 14 -28 16 -28
2z"/>
<path d="M1871 3695 c0 -5 6 -21 14 -35 8 -14 14 -20 14 -15 0 6 -6 21 -14 35
-8 14 -14 21 -14 15z"/>
<path d="M1900 3625 c0 -5 5 -17 10 -25 5 -8 10 -10 10 -5 0 6 -5 17 -10 25
-5 8 -10 11 -10 5z"/>
<path d="M1920 3579 c0 -4 7 -22 15 -40 8 -19 14 -27 14 -19 0 14 -28 72 -29
59z"/>
<path d="M1770 4450 c0 -5 5 -10 11 -10 5 0 7 5 4 10 -3 6 -8 10 -11 10 -2 0
-4 -4 -4 -10z"/>
<path d="M1631 4414 c0 -11 3 -14 6 -6 3 7 2 16 -1 19 -3 4 -6 -2 -5 -13z"/>
<path d="M1611 4324 c0 -11 3 -14 6 -6 3 7 2 16 -1 19 -3 4 -6 -2 -5 -13z"/>
<path d="M4063 4300 c0 -25 2 -35 4 -22 2 12 2 32 0 45 -2 12 -4 2 -4 -23z"/>
<path d="M7549 3413 c-13 -16 -12 -17 4 -4 16 13 21 21 13 21 -2 0 -10 -8 -17
-17z"/>
<path d="M7500 3369 c0 -5 5 -7 10 -4 6 3 10 8 10 11 0 2 -4 4 -10 4 -5 0 -10
-5 -10 -11z"/>
<path d="M8192 4015 c-6 -14 -8 -25 -4 -25 4 0 12 11 19 25 6 14 8 25 4 25 -4
0 -13 -11 -19 -25z"/>
<path d="M8222 4000 c-14 -23 -8 -40 15 -40 10 0 13 6 9 16 -4 9 -1 23 5 30 9
11 8 14 -2 14 -8 0 -20 -9 -27 -20z"/>
<path d="M8280 3973 c-16 -20 -18 -28 -8 -35 21 -13 27 -10 42 21 24 46 0 57
-34 14z"/>
<path d="M8341 3961 c-13 -24 -14 -48 -3 -55 5 -3 14 10 19 29 12 39 0 57 -16
26z"/>
<path d="M8060 3741 c0 -5 7 -14 15 -21 16 -14 18 -10 9 14 -6 17 -24 22 -24
7z"/>
<path d="M4953 3709 c-116 -20 -230 -84 -272 -153 -28 -45 -27 -65 2 -34 30
32 135 83 212 103 89 23 267 20 367 -6 99 -25 151 -50 202 -98 24 -22 37 -29
32 -18 -3 10 -6 23 -6 27 0 17 -61 79 -108 108 -26 17 -74 39 -107 50 -71 24
-245 35 -322 21z"/>
<path d="M2401 3016 c-17 -13 -119 -108 -226 -211 -251 -241 -248 -228 -101
-389 75 -83 124 -109 164 -87 11 6 22 11 24 11 2 0 1 -32 0 -72 l-4 -71 102
-99 102 -98 55 0 c49 0 55 2 71 30 9 16 20 30 23 30 3 0 9 -23 12 -51 12 -100
108 -217 222 -270 104 -48 143 -59 209 -59 61 0 147 22 175 44 11 9 13 8 8 -4
-45 -114 -34 -139 96 -207 52 -28 113 -53 136 -56 37 -5 47 -1 75 24 l34 29
22 -63 c13 -34 28 -68 34 -76 15 -19 85 -48 185 -78 82 -24 85 -24 123 -7 26
12 40 25 44 43 3 14 7 31 8 36 2 6 10 -5 20 -22 9 -18 29 -39 45 -47 16 -9 42
-26 57 -39 16 -13 61 -34 99 -48 59 -20 89 -24 190 -24 87 0 134 5 171 17 l52
18 88 -60 c78 -53 101 -63 184 -81 104 -23 152 -21 218 9 42 19 44 19 80 1 34
-17 49 -18 177 -8 77 5 183 17 235 26 52 8 131 19 175 23 173 18 265 63 265
129 0 39 7 42 44 21 52 -31 163 -46 230 -31 79 18 168 65 211 113 34 37 39 39
60 28 14 -7 37 -10 57 -6 44 8 143 56 196 95 36 26 42 36 42 66 l0 36 31 -17
c42 -21 79 -13 159 36 36 21 87 52 114 67 133 76 412 275 421 301 3 9 31 33
61 52 31 19 87 64 124 100 78 74 94 115 66 168 l-15 30 72 7 72 7 76 78 c79
82 139 179 139 224 0 53 -34 69 -170 84 l-65 7 -6 40 c-12 90 -82 179 -164
211 -59 22 -174 16 -230 -13 -22 -12 -91 -69 -153 -127 -62 -58 -145 -131
-183 -162 -38 -31 -73 -62 -77 -69 -10 -18 -284 -204 -425 -288 -73 -44 -124
-81 -132 -97 -10 -20 -21 -26 -49 -27 -44 -1 -191 -69 -215 -99 -14 -18 -30
-22 -106 -26 -61 -4 -104 -12 -135 -26 -57 -26 -137 -83 -156 -111 l-15 -21
-26 20 c-31 24 -109 27 -199 5 -131 -31 -150 -55 -139 -181 4 -46 13 -112 20
-146 7 -35 11 -66 8 -70 -2 -5 -17 -8 -33 -8 -34 0 -36 7 -46 170 -7 127 -16
149 -70 175 -29 14 -53 15 -137 10 -56 -4 -115 -13 -131 -21 -26 -13 -35 -12
-73 2 -33 13 -65 15 -137 12 -84 -4 -100 -9 -159 -41 l-66 -36 -49 48 c-106
103 -233 134 -421 105 -115 -17 -107 -18 -121 15 -10 25 -25 35 -89 59 -121
47 -144 53 -215 55 -63 3 -69 5 -93 35 -29 37 -86 69 -158 88 -75 20 -108 18
-139 -11 -15 -14 -29 -25 -32 -25 -2 0 -4 18 -4 40 0 53 -27 104 -87 162 -80
77 -190 125 -301 131 l-49 2 1 37 c1 34 -7 46 -74 114 -87 88 -152 134 -192
134 -24 0 -28 4 -28 26 0 40 -33 86 -113 159 -82 75 -118 83 -176 41z m123
-145 c56 -57 57 -59 52 -102 -3 -24 -8 -105 -11 -179 l-5 -135 37 40 c21 23
61 68 90 100 40 47 54 58 66 50 73 -50 146 -119 139 -130 -10 -19 -154 -186
-232 -270 -36 -38 -82 -90 -103 -115 l-38 -45 -74 80 -75 80 2 171 3 172 -27
-19 c-15 -11 -51 -47 -81 -80 l-54 -61 -59 62 c-32 34 -61 66 -63 72 -3 10
355 366 369 367 3 1 32 -25 64 -58z m5228 -1 c79 -22 119 -95 108 -197 l-6
-53 61 0 c85 0 165 -11 165 -22 0 -12 -33 -53 -97 -120 l-44 -48 -92 0 c-89
-1 -93 -2 -130 -33 l-38 -33 45 -59 46 -60 -73 -67 c-39 -37 -77 -67 -83 -65
-6 1 -68 74 -139 162 -71 88 -149 184 -174 214 l-45 53 40 37 c22 20 98 89
168 154 161 147 193 163 288 137z m-492 -430 c19 -27 35 -53 35 -58 0 -5 -38
-38 -85 -72 -47 -35 -86 -64 -88 -65 -5 -5 21 -55 29 -55 5 0 41 25 81 55 40
30 78 55 83 54 14 0 86 -109 79 -120 -3 -5 -20 -17 -37 -26 -17 -9 -51 -32
-74 -51 -34 -29 -40 -39 -32 -54 5 -10 14 -18 20 -18 15 0 129 83 163 119 35
36 42 38 51 11 3 -11 22 -38 41 -61 19 -23 31 -45 27 -49 -68 -59 -353 -260
-368 -260 -11 0 -305 460 -304 476 0 10 319 222 334 223 6 0 26 -22 45 -49z
m-4110 -67 c103 -45 194 -165 207 -273 9 -78 -28 -173 -92 -236 -68 -67 -128
-88 -234 -82 -90 6 -141 28 -212 95 -73 68 -104 139 -104 238 0 93 18 138 77
197 95 95 228 118 358 61z m3700 -165 c0 -18 -7 -96 -15 -172 -8 -77 -14 -140
-12 -141 1 -1 65 -23 142 -50 77 -26 148 -53 159 -60 17 -12 15 -15 -25 -40
-24 -15 -65 -41 -91 -57 l-48 -30 -105 40 c-58 21 -105 36 -105 32 0 -4 9 -33
20 -65 11 -32 20 -66 20 -76 0 -11 -26 -31 -77 -59 -62 -33 -79 -39 -89 -28
-7 7 -49 96 -92 198 -44 102 -91 209 -106 239 -14 30 -26 60 -26 66 0 13 160
86 172 79 3 -2 21 -37 40 -76 l33 -72 7 39 c4 22 7 65 7 96 1 30 7 63 14 72
13 18 144 94 165 96 7 1 12 -12 12 -31z m-3253 -118 l78 -30 39 -108 c65 -181
81 -222 87 -222 3 0 23 54 44 120 40 129 44 132 102 109 15 -7 51 -17 78 -24
42 -9 50 -15 52 -36 2 -13 -35 -136 -80 -274 -69 -206 -87 -250 -103 -252 -10
-1 -57 17 -104 40 l-85 42 -62 145 c-34 80 -64 150 -66 155 -4 12 -36 -58 -62
-134 -9 -29 -23 -55 -29 -57 -15 -6 -166 61 -166 73 0 5 24 65 53 133 29 69
73 176 97 238 23 61 44 112 46 112 1 0 38 -14 81 -30z m2761 -136 c26 -7 28
-31 9 -113 l-13 -54 -66 -1 c-56 -1 -71 -5 -92 -25 -36 -34 -50 -82 -36 -125
31 -95 146 -113 234 -35 l32 28 52 -59 52 -59 -53 -54 c-154 -153 -414 -117
-503 71 -23 49 -26 65 -22 136 8 144 86 246 218 287 30 9 156 11 188 3z
m-1834 -113 c73 -35 156 -119 156 -156 0 -12 -9 -58 -20 -101 -11 -44 -20
-109 -20 -146 0 -62 -2 -68 -32 -94 -84 -70 -195 -96 -299 -70 -232 60 -328
286 -202 478 80 121 270 162 417 89z m1353 -102 c31 -147 83 -423 83 -441 0
-12 -25 -22 -95 -39 -52 -12 -98 -19 -102 -15 -17 17 -101 528 -91 557 4 13
149 50 173 45 6 -2 20 -49 32 -107z m-786 21 c106 -33 116 -52 68 -122 -11
-14 -19 -30 -19 -35 0 -4 -7 -16 -14 -26 -13 -17 -16 -17 -38 -4 -42 28 -92
31 -135 9 -62 -32 -83 -93 -54 -158 15 -33 27 -44 56 -54 51 -17 107 -15 150
6 20 9 37 15 39 13 2 -2 17 -33 34 -69 l32 -65 -28 -23 c-80 -66 -237 -81
-337 -32 -71 36 -136 104 -159 168 -39 110 -4 246 83 325 95 86 196 107 322
67z m312 -27 c3 -27 11 -117 18 -202 l12 -154 61 7 c34 3 91 9 127 12 l67 7 6
-42 c19 -130 20 -120 -7 -130 -29 -11 -323 -41 -400 -41 l-49 0 6 34 c4 18 0
62 -9 98 -8 36 -17 137 -20 224 -3 88 -8 173 -11 191 l-6 32 58 4 c33 2 78 4
100 5 l41 2 6 -47z"/>
<path d="M7576 2631 c-62 -63 -64 -73 -26 -119 11 -13 23 -22 28 -20 18 7 122
129 122 143 0 18 -35 55 -53 55 -7 0 -39 -26 -71 -59z"/>
<path d="M2988 2195 c-79 -44 -76 -170 6 -209 44 -21 64 -20 104 4 62 38 71
120 20 175 -39 41 -90 52 -130 30z"/>
<path d="M4330 1672 c-73 -36 -77 -148 -6 -191 98 -61 206 27 162 132 -15 38
-67 77 -101 77 -11 0 -36 -8 -55 -18z"/>
<path d="M4028 8559 c-48 -14 -123 -80 -150 -133 -13 -26 -23 -67 -26 -111 -3
-63 -1 -76 25 -125 55 -104 172 -163 282 -141 207 42 278 293 126 446 -20 19
-50 42 -67 51 -39 20 -140 27 -190 13z m153 -47 c15 -9 36 -28 48 -42 11 -14
20 -20 21 -14 0 5 -6 16 -12 24 -7 8 0 4 15 -10 26 -23 63 -79 55 -84 -2 -1
-20 -8 -42 -15 -47 -16 -64 -4 -73 55 -7 44 -30 84 -47 83 -7 0 -6 -2 2 -6 24
-9 12 -23 -15 -17 -31 8 -36 16 39 -74 40 -48 41 -63 12 -169 -16 -57 -53 -94
-77 -76 -6 6 -36 13 -66 16 -29 4 -65 14 -79 23 l-25 17 23 -34 c13 -19 29
-37 34 -41 6 -4 8 -9 5 -13 -12 -12 -63 41 -85 89 -53 114 -12 230 101 289 41
22 133 22 166 -1z m-18 -409 c-7 -2 -19 -2 -25 0 -7 3 -2 5 12 5 14 0 19 -2
13 -5z"/>
<path d="M4080 8480 c-9 -6 -10 -10 -3 -10 6 0 15 5 18 10 8 12 4 12 -15 0z"/>
<path d="M4120 8323 c-3 -23 -2 -39 3 -34 5 5 7 24 5 42 -3 33 -4 33 -8 -8z"/>
<path d="M3927 8343 c-11 -10 -8 -76 4 -93 8 -12 9 -11 7 5 -2 13 2 19 11 17
10 -2 12 4 6 25 -4 15 -8 34 -8 41 0 13 -10 16 -20 5z m10 -45 c-3 -8 -6 -5
-6 6 -1 11 2 17 5 13 3 -3 4 -12 1 -19z"/>
<path d="M5953 8545 c-84 -42 -146 -144 -146 -242 0 -79 50 -175 111 -214 90
-57 167 -61 267 -15 87 40 138 126 139 237 0 53 -5 74 -26 110 -32 54 -97 116
-144 135 -55 23 -142 18 -201 -11z m185 -21 c84 -35 142 -122 140 -209 l-1
-50 -7 60 c-11 99 -58 165 -118 165 -23 0 -32 -4 -28 -12 3 -7 9 -21 12 -31 4
-10 13 -16 20 -13 8 3 14 -1 14 -9 0 -8 8 -20 19 -27 49 -35 33 -124 -35 -187
l-45 -41 -72 6 c-40 3 -85 10 -100 16 -15 6 -31 7 -35 3 -11 -11 66 -73 102
-81 17 -4 25 -9 18 -11 -21 -8 -99 36 -124 70 -32 42 -58 110 -58 150 0 38 33
113 63 145 58 63 161 87 235 56z m117 -314 c-10 -22 -21 -40 -25 -40 -4 0 3
20 14 44 11 25 22 43 25 41 2 -3 -4 -23 -14 -45z m-138 -106 c-3 -3 -12 -4
-19 -1 -8 3 -5 6 6 6 11 1 17 -2 13 -5z"/>
<path d="M6632 8224 c-96 -48 -155 -143 -156 -249 0 -145 101 -254 241 -258
81 -3 145 19 199 66 64 56 88 107 88 187 0 85 -18 133 -68 188 -83 91 -202
117 -304 66z m193 -34 c45 -19 98 -68 120 -110 25 -48 17 -210 -10 -210 -2 0
0 12 5 26 15 38 12 141 -5 173 -15 29 -40 45 -56 35 -5 -3 -2 -19 7 -36 18
-35 20 -107 4 -137 -5 -11 -7 -26 -4 -34 4 -11 -4 -17 -27 -22 -19 -4 -45 -20
-60 -36 -22 -23 -36 -29 -70 -29 -45 0 -79 21 -79 49 0 9 -20 26 -43 37 l-42
22 -1 63 c-1 35 3 75 8 88 12 34 4 36 -17 5 -23 -35 -23 -130 1 -176 24 -49
73 -96 111 -109 19 -6 32 -13 29 -16 -10 -10 -79 20 -113 50 -102 90 -93 246
19 342 64 54 136 63 223 25z m84 -356 c-13 -14 -36 -32 -51 -40 -46 -24 -44
-15 4 15 25 16 49 34 52 40 4 6 10 11 13 11 4 0 -4 -12 -18 -26z m-106 -61
c-7 -2 -19 -2 -25 0 -7 3 -2 5 12 5 14 0 19 -2 13 -5z"/>
<path d="M6692 8168 c-21 -21 -13 -26 31 -24 23 1 50 -2 60 -6 12 -7 17 -4 17
8 0 10 -5 14 -14 11 -8 -3 -20 1 -26 9 -15 17 -52 18 -68 2z"/>
<path d="M6585 8120 c-3 -5 -1 -10 4 -10 6 0 11 5 11 10 0 6 -2 10 -4 10 -3 0
-8 -4 -11 -10z"/>
<path d="M6841 8039 c-1 -9 8 -19 19 -22 13 -3 20 0 20 10 0 9 -6 13 -14 10
-8 -3 -17 -1 -20 6 -2 7 -5 5 -5 -4z"/>
<path d="M3339 8220 c-49 -26 -113 -100 -127 -148 -19 -63 -15 -156 9 -207 46
-97 160 -164 260 -152 54 7 132 38 162 65 65 58 93 152 73 249 -21 99 -70 159
-160 197 -55 23 -171 21 -217 -4z m221 -40 c19 -10 43 -27 53 -38 14 -15 7
-14 -39 9 -76 39 -96 38 -59 -1 16 -16 39 -30 52 -30 14 0 23 -6 23 -15 0 -8
6 -15 14 -15 30 0 25 -19 -17 -61 -23 -23 -33 -36 -22 -29 11 8 7 -1 -10 -19
-45 -49 -160 -141 -177 -141 -8 0 -31 16 -51 35 -33 32 -37 42 -37 85 0 38 4
50 15 50 17 0 20 16 4 26 -6 4 -9 19 -5 35 l6 29 -28 -25 c-24 -22 -27 -32
-27 -88 0 -34 3 -75 7 -92 6 -25 4 -23 -12 10 -50 103 3 234 115 286 48 22
139 17 195 -11z"/>
<path d="M3489 7943 c-13 -16 -12 -17 4 -4 9 7 17 15 17 17 0 8 -8 3 -21 -13z"/>
<path d="M7641 7644 c-17 -14 -31 -30 -31 -36 0 -6 -14 -26 -30 -45 l-31 -34
21 -35 c12 -18 19 -38 15 -44 -3 -5 -2 -10 4 -10 6 0 16 -18 22 -41 7 -23 23
-48 35 -56 28 -18 79 -14 80 7 1 8 2 24 2 36 1 12 22 42 48 68 l45 47 -25 30
c-15 17 -26 38 -26 48 0 18 -27 47 -71 75 -26 16 -28 16 -58 -10z m53 -10 c28
-11 17 -24 -20 -24 -31 0 -35 2 -24 15 14 17 21 18 44 9z m55 -69 c38 -44 39
-70 5 -106 l-27 -28 -48 46 c-59 56 -66 95 -21 111 45 17 59 14 91 -23z m-144
-52 c10 -16 36 -43 57 -62 32 -27 39 -39 36 -64 -2 -17 -8 -32 -15 -34 -21 -7
-60 41 -67 82 -4 21 -16 50 -27 63 -10 14 -19 29 -19 33 0 18 18 8 35 -18z"/>
<path d="M7650 7560 c-13 -24 2 -60 25 -60 8 0 22 -12 32 -26 16 -25 17 -25
30 -8 18 24 16 65 -3 92 -20 29 -69 30 -84 2z m66 -14 c8 -8 14 -22 14 -32 0
-16 -2 -15 -21 2 -12 10 -24 18 -28 16 -3 -2 -7 4 -9 12 -4 20 24 21 44 2z"/>
<path d="M8518 7131 c-2 -17 0 -38 5 -47 8 -14 12 -12 23 16 19 44 18 60 -5
60 -13 0 -20 -9 -23 -29z"/>
<path d="M8617 6890 c6 -22 23 -38 23 -21 0 17 -12 41 -20 41 -5 0 -6 -9 -3
-20z"/>
<path d="M8701 6715 c0 -5 8 -26 19 -45 11 -19 19 -30 19 -25 0 6 -8 26 -19
45 -11 19 -19 31 -19 25z"/>
<path d="M8840 6619 c0 -25 40 -27 40 -1 1 13 4 11 15 -8 8 -14 14 -20 14 -15
1 21 -18 38 -43 41 -20 2 -26 -2 -26 -17z"/>
<path d="M8800 6570 c0 -5 -7 -7 -15 -4 -10 4 -15 0 -15 -12 0 -14 2 -16 9 -6
4 8 11 13 15 13 3 -1 12 1 19 4 6 2 23 6 37 8 17 3 14 5 -12 6 -21 0 -38 -3
-38 -9z"/>
<path d="M8877 6560 c-3 -10 3 -16 14 -16 10 0 16 2 14 5 -3 2 -1 9 5 15 6 8
3 12 -10 12 -10 0 -21 -7 -23 -16z"/>
<path d="M3290 6515 c-159 -37 -249 -108 -318 -248 -61 -124 -39 -240 96 -501
86 -164 199 -266 335 -302 83 -22 102 -19 127 21 12 19 28 38 35 42 7 5 -38 8
-100 8 -105 0 -116 2 -137 23 l-22 22 105 0 c150 0 259 40 259 96 0 27 -8 30
-24 10 -15 -19 -101 -65 -123 -65 -81 -3 -135 3 -183 20 -30 11 -62 21 -72 23
-29 8 -73 34 -95 58 -23 25 -135 243 -158 309 -36 100 -2 235 78 318 42 43 42
43 10 27 -18 -9 -33 -12 -33 -7 0 14 57 59 114 89 46 24 61 27 151 26 55 0
111 -6 125 -12 22 -11 20 -12 -20 -7 l-45 5 52 -18 c28 -10 64 -27 80 -38 15
-10 34 -17 42 -15 18 3 31 -17 31 -50 0 -28 21 -77 53 -122 10 -16 17 -30 15
-33 -3 -2 -22 23 -43 56 -57 91 -109 133 -189 155 -60 16 -76 17 -129 6 -107
-22 -171 -69 -218 -160 -36 -70 -31 -127 20 -245 23 -55 48 -129 55 -165 11
-60 16 -68 52 -93 57 -40 119 -59 209 -65 67 -4 90 -1 138 17 58 22 116 65
103 77 -3 4 -19 -6 -35 -21 -35 -33 -119 -66 -171 -66 -54 0 -144 25 -210 58
l-55 27 -7 63 c-5 42 -22 95 -52 162 -57 124 -61 179 -17 255 40 69 78 102
144 125 67 24 110 25 166 5 72 -25 94 -49 171 -184 41 -72 80 -131 85 -131 6
0 16 26 22 58 6 31 17 82 24 112 12 54 11 57 -17 100 -53 81 -112 128 -194
154 -97 32 -162 38 -230 21z"/>
<path d="M6578 6512 c-37 -25 -63 -59 -119 -163 -41 -76 -47 -93 -38 -111 10
-19 16 -12 55 71 24 50 43 97 41 104 -1 6 4 11 11 10 11 -3 17 10 13 31 -2 12
20 37 54 58 17 10 26 18 20 18 -5 0 -22 -8 -37 -18z"/>
<path d="M6882 6400 c0 -14 2 -19 5 -12 2 6 2 18 0 25 -3 6 -5 1 -5 -13z"/>
<path d="M6846 6315 c-9 -26 -7 -32 5 -12 6 10 9 21 6 23 -2 3 -7 -2 -11 -11z"/>
<path d="M6611 6113 c7 -10 14 -20 16 -22 1 -1 7 0 13 4 14 9 -6 35 -27 35
-13 0 -13 -3 -2 -17z"/>
<path d="M6566 6111 c-3 -5 1 -14 9 -21 20 -17 47 -72 38 -79 -14 -10 -14 -33
-1 -29 22 7 20 46 -3 93 -22 45 -33 53 -43 36z"/>
<path d="M6640 6066 c0 -8 4 -17 9 -20 12 -8 -4 -77 -21 -87 -9 -6 -10 -9 -1
-9 25 0 45 47 38 90 -6 38 -25 57 -25 26z"/>
<path d="M6550 6060 c0 -5 5 -10 10 -10 6 0 10 5 10 10 0 6 -4 10 -10 10 -5 0
-10 -4 -10 -10z"/>
<path d="M6567 6028 c-3 -10 -2 -20 4 -23 5 -4 7 -10 4 -15 -3 -5 -1 -11 5
-15 11 -7 12 7 1 45 -6 21 -8 22 -14 8z"/>
<path d="M3650 5842 c0 -18 5 -32 10 -32 6 0 8 11 4 28 -10 39 -14 40 -14 4z"/>
<path d="M3170 5752 c0 -10 23 -31 64 -56 16 -10 26 -13 22 -8 -11 18 -86 74
-86 64z"/>
<path d="M6873 5518 c-13 -6 -23 -17 -23 -25 0 -15 23 -17 48 -4 9 5 25 12 35
15 9 3 17 10 17 16 0 13 -48 12 -77 -2z"/>
<path d="M6990 5497 c0 -26 -99 -95 -114 -80 -3 4 -6 2 -6 -4 0 -6 -13 -13
-29 -16 -16 -3 -31 -13 -34 -20 -7 -18 91 18 148 53 45 28 74 80 45 80 -5 0
-10 -6 -10 -13z"/>
<path d="M6823 5483 c-7 -12 -13 -32 -13 -45 0 -17 -3 -19 -9 -9 -7 11 -11 9
-21 -8 -21 -41 -8 -51 28 -21 29 24 33 33 30 66 -3 37 -4 38 -15 17z"/>
<path d="M7098 5456 c-25 -19 -22 -41 9 -64 l26 -19 -69 -18 c-106 -27 -286
-86 -311 -103 -27 -17 -30 -37 -5 -29 9 3 51 20 92 37 41 17 113 42 160 54
126 34 311 102 321 118 19 30 10 39 -22 23 -28 -15 -32 -15 -48 -1 -20 18 -88
15 -83 -3 1 -6 -2 -11 -8 -11 -5 0 -10 -5 -10 -11 0 -6 7 -8 16 -5 10 4 14 1
12 -6 -3 -7 -19 -14 -36 -16 -37 -4 -52 19 -33 49 13 22 12 23 -11 5z m139
-23 c4 -11 -26 -27 -35 -19 -2 3 -2 12 2 21 6 18 27 16 33 -2z"/>
<path d="M7155 5340 c-11 -5 -29 -11 -39 -14 -13 -5 -16 -10 -9 -17 6 -6 24
-1 54 16 41 23 38 34 -6 15z"/>
<path d="M6990 5276 c0 -2 9 -6 20 -9 11 -3 18 -1 14 4 -5 9 -34 13 -34 5z"/>
<path d="M7060 5161 c-33 -17 -53 -51 -31 -51 6 0 2 -16 -9 -37 -23 -43 -15
-66 11 -32 10 13 19 27 19 32 0 4 8 2 19 -4 10 -7 27 -9 37 -5 15 6 16 9 4 16
-8 5 -12 10 -10 12 66 48 80 61 80 73 0 10 -15 3 -46 -20 -49 -38 -74 -44 -74
-20 0 16 5 19 53 29 15 4 25 11 22 16 -9 15 -37 12 -75 -9z"/>
<path d="M6883 5119 c-25 -16 -33 -28 -33 -51 0 -21 -4 -27 -12 -22 -16 10 11
-26 32 -43 23 -19 65 -15 84 6 10 11 20 38 23 62 5 34 2 45 -12 56 -26 18 -44
16 -82 -8z m75 -37 c4 -29 -23 -72 -46 -72 -24 0 -42 19 -42 44 0 52 81 78 88
28z"/>
<path d="M6740 4995 c0 -9 8 -19 18 -22 9 -4 20 -11 24 -17 5 -8 11 -7 18 0 9
9 4 17 -18 33 -36 25 -42 26 -42 6z"/>
<path d="M6809 4843 c-13 -16 -12 -17 4 -4 9 7 17 15 17 17 0 8 -8 3 -21 -13z"/>
<path d="M7732 4703 c-26 -38 -34 -53 -29 -53 2 0 16 18 31 40 29 45 28 56 -2
13z"/>
<path d="M7727 4631 c-23 -40 -21 -56 9 -70 15 -6 28 -10 29 -9 9 11 55 89 55
93 0 16 -19 1 -30 -25 -17 -42 -36 -56 -55 -40 -12 10 -13 16 -4 26 6 8 16 11
22 7 6 -4 8 0 4 9 -3 9 0 21 6 27 8 8 7 11 -4 11 -8 0 -22 -13 -32 -29z"/>
<path d="M7843 4622 c-4 -9 -17 -32 -30 -51 -22 -32 -22 -35 -6 -47 22 -15 30
-10 14 10 -11 13 -8 20 13 39 14 13 26 29 26 35 0 6 5 12 12 14 7 3 5 7 -5 11
-12 4 -20 1 -24 -11z"/>
<path d="M8077 4610 c-3 -11 -1 -18 3 -15 5 3 11 -14 13 -37 3 -42 4 -42 5 9
2 52 -11 80 -21 43z"/>
<path d="M7877 4571 c-32 -59 -33 -67 -6 -81 27 -15 38 -4 14 14 -26 19 -13
48 19 40 18 -4 27 -1 35 14 18 34 12 49 -9 22 -23 -30 -38 -20 -22 15 21 45
-4 26 -31 -24z"/>
<path d="M7942 4519 c-18 -28 -30 -54 -27 -57 4 -4 13 2 21 12 13 19 14 18 20
-11 3 -17 14 -33 23 -36 9 -3 24 -8 33 -12 14 -5 20 5 37 60 24 77 25 83 10
68 -6 -6 -17 -9 -24 -6 -8 2 -19 -6 -25 -19 -11 -22 -10 -22 4 -4 23 28 31 12
17 -34 -12 -41 -17 -45 -45 -34 -19 7 -22 74 -6 105 22 40 -6 17 -38 -32z"/>
<path d="M7647 4511 c-20 -34 -22 -58 -4 -64 10 -4 10 -7 0 -18 -7 -7 -13 -18
-13 -23 0 -6 7 0 16 13 12 17 13 26 5 34 -16 16 -14 40 3 34 17 -7 36 11 36
35 0 28 -24 21 -43 -11z m29 -8 c-10 -10 -19 5 -10 18 6 11 8 11 12 0 2 -7 1
-15 -2 -18z"/>
<path d="M7725 4478 c-30 -16 -55 -50 -55 -76 0 -34 19 -23 57 31 33 47 33 63
-2 45z m-4 -35 c-5 -10 -16 -27 -25 -38 -15 -19 -15 -19 -16 -1 0 20 27 56 42
56 5 0 4 -8 -1 -17z"/>
<path d="M7754 4433 c-12 -16 -26 -39 -33 -53 -10 -19 -6 -17 18 10 21 24 29
29 25 15 -8 -28 11 2 20 33 10 30 -6 28 -30 -5z"/>
<path d="M8081 4448 c-1 -9 -7 -23 -14 -30 -7 -7 -28 -37 -47 -65 -18 -29 -35
-51 -38 -48 -3 2 3 16 12 29 19 30 20 36 4 36 -20 -1 -78 -126 -65 -139 7 -7
6 -15 -3 -26 -7 -8 -10 -18 -7 -22 6 -6 24 13 74 82 35 47 95 173 90 187 -4 9
-6 7 -6 -4z"/>
<path d="M7805 4414 c-9 -15 -12 -23 -5 -19 10 6 11 -3 6 -39 -4 -25 -4 -46 1
-46 8 1 65 84 71 104 2 6 -11 -5 -27 -24 -23 -26 -31 -30 -31 -16 0 9 5 26 10
36 16 30 -6 33 -25 4z"/>
<path d="M7868 4345 c-15 -30 -23 -57 -18 -60 5 -3 20 20 34 51 29 62 29 64
19 63 -5 0 -20 -25 -35 -54z"/>
<path d="M7751 4363 c-1 -24 13 -31 25 -11 4 6 3 8 -4 4 -6 -3 -13 2 -15 11
-4 14 -5 13 -6 -4z"/>
<path d="M7918 4369 c-22 -12 -23 -32 -3 -49 9 -8 15 -8 15 -2 0 6 -5 12 -12
14 -6 2 -8 10 -4 17 6 8 11 9 20 2 16 -13 27 -4 19 15 -6 16 -12 17 -35 3z"/>
<path d="M7893 4293 c4 -3 2 -12 -4 -19 -15 -18 5 -26 26 -10 20 14 13 36 -12
36 -9 0 -13 -3 -10 -7z"/>
<path d="M1446 3377 c3 -10 9 -15 12 -12 3 3 0 11 -7 18 -10 9 -11 8 -5 -6z"/>
<path d="M1483 3277 c1 -14 5 -23 9 -21 3 2 9 -2 12 -8 3 -7 3 -2 0 12 -9 35
-22 47 -21 17z"/>
<path d="M1381 3163 c11 -34 19 -42 19 -20 0 7 -7 22 -15 33 -13 17 -14 16 -4
-13z"/>
<path d="M1555 3060 c3 -5 8 -10 11 -10 2 0 4 5 4 10 0 6 -5 10 -11 10 -5 0
-7 -4 -4 -10z"/>
</g>
</svg>
